<mxfile host="app.diagrams.net" agent="Mozilla/5.0 (Windows NT 10.0; Win64; x64) AppleWebKit/537.36 (KHTML, like Gecko) Chrome/131.0.0.0 Safari/537.36 Edg/131.0.0.0" version="24.8.6">
  <diagram name="Page-1" id="E5rieXq4K48SmAmsqCkH">
    <mxGraphModel dx="1588" dy="2118" grid="1" gridSize="12" guides="1" tooltips="1" connect="1" arrows="1" fold="1" page="1" pageScale="1" pageWidth="850" pageHeight="1100" math="0" shadow="0">
      <root>
        <mxCell id="0" />
        <mxCell id="1" parent="0" />
        <mxCell id="r939p5lcw7S0-f_gpcF7-27" value="" style="swimlane;startSize=0;dashed=1;strokeWidth=1;strokeColor=#B3B3B3;container=0;fontSize=14;" parent="1" vertex="1">
          <mxGeometry x="501" y="-348" width="987" height="832" as="geometry" />
        </mxCell>
        <mxCell id="r939p5lcw7S0-f_gpcF7-39" value="" style="edgeStyle=orthogonalEdgeStyle;rounded=0;orthogonalLoop=1;jettySize=auto;html=1;fontSize=14;" parent="1" source="r939p5lcw7S0-f_gpcF7-1" target="r939p5lcw7S0-f_gpcF7-3" edge="1">
          <mxGeometry relative="1" as="geometry" />
        </mxCell>
        <mxCell id="r939p5lcw7S0-f_gpcF7-1" value="Devops" style="image;aspect=fixed;points=[];align=center;fontSize=14;image=img/lib/azure2/devops/Azure_DevOps.svg;textShadow=0;labelBorderColor=none;fontFamily=Verdana;horizontal=1;fillColor=#40189E;shadow=1;verticalAlign=top;labelPosition=center;verticalLabelPosition=bottom;whiteSpace=wrap;dashed=1;strokeColor=#B3B3B3;container=0;" parent="1" vertex="1">
          <mxGeometry x="576" y="288" width="50" height="50" as="geometry" />
        </mxCell>
        <mxCell id="r939p5lcw7S0-f_gpcF7-45" value="" style="edgeStyle=orthogonalEdgeStyle;rounded=0;orthogonalLoop=1;jettySize=auto;html=1;entryX=0.001;entryY=0.397;entryDx=0;entryDy=0;entryPerimeter=0;fontSize=14;" parent="1" source="r939p5lcw7S0-f_gpcF7-2" target="r939p5lcw7S0-f_gpcF7-4" edge="1">
          <mxGeometry relative="1" as="geometry">
            <mxPoint x="504.27272727272725" y="65" as="targetPoint" />
          </mxGeometry>
        </mxCell>
        <mxCell id="r939p5lcw7S0-f_gpcF7-2" value="" style="outlineConnect=0;fontColor=#232F3E;gradientColor=none;fillColor=#40189E;strokeColor=#B3B3B3;dashed=1;verticalLabelPosition=bottom;verticalAlign=top;align=center;fontSize=14;fontStyle=0;pointerEvents=1;shape=mxgraph.aws4.user;textShadow=0;labelBorderColor=none;fontFamily=Verdana;horizontal=1;shadow=1;labelPosition=center;whiteSpace=wrap;container=0;" parent="1" vertex="1">
          <mxGeometry x="372" y="43" width="50" height="50" as="geometry" />
        </mxCell>
        <mxCell id="r939p5lcw7S0-f_gpcF7-3" value="Container registry" style="image;aspect=fixed;points=[];align=center;fontSize=14;image=img/lib/azure2/containers/Container_Registries.svg;textShadow=0;labelBorderColor=none;fontFamily=Verdana;horizontal=1;fillColor=#40189E;shadow=1;verticalAlign=top;labelPosition=center;verticalLabelPosition=bottom;whiteSpace=wrap;dashed=1;strokeColor=#B3B3B3;container=0;" parent="1" vertex="1">
          <mxGeometry x="720" y="289" width="50" height="49" as="geometry" />
        </mxCell>
        <mxCell id="r939p5lcw7S0-f_gpcF7-43" value="" style="edgeStyle=orthogonalEdgeStyle;rounded=0;orthogonalLoop=1;jettySize=auto;html=1;fontSize=14;" parent="1" source="r939p5lcw7S0-f_gpcF7-4" target="r939p5lcw7S0-f_gpcF7-5" edge="1">
          <mxGeometry relative="1" as="geometry" />
        </mxCell>
        <mxCell id="r939p5lcw7S0-f_gpcF7-4" value="Static Apps" style="image;aspect=fixed;points=[];align=center;fontSize=14;image=img/lib/azure2/preview/Static_Apps.svg;textShadow=0;labelBorderColor=none;fontFamily=Verdana;horizontal=1;fillColor=#40189E;shadow=1;verticalAlign=top;labelPosition=center;verticalLabelPosition=bottom;whiteSpace=wrap;dashed=1;strokeColor=#B3B3B3;container=0;" parent="1" vertex="1">
          <mxGeometry x="576" y="49" width="50" height="50" as="geometry" />
        </mxCell>
        <mxCell id="r939p5lcw7S0-f_gpcF7-5" value="App Service&#xa;" style="image;aspect=fixed;points=[];align=center;fontSize=14;image=img/lib/azure2/compute/App_Services.svg;textShadow=0;labelBorderColor=none;fontFamily=Verdana;horizontal=1;fillColor=#40189E;shadow=1;verticalAlign=top;labelPosition=center;verticalLabelPosition=bottom;whiteSpace=wrap;dashed=1;strokeColor=#B3B3B3;container=0;" parent="1" vertex="1">
          <mxGeometry x="720" y="50" width="50" height="50" as="geometry" />
        </mxCell>
        <object label="Blob Storage" id="r939p5lcw7S0-f_gpcF7-6">
          <mxCell style="image;aspect=fixed;points=[];align=center;fontSize=14;image=img/lib/azure2/storage/Storage_Accounts.svg;textShadow=0;labelBorderColor=none;fontFamily=Verdana;horizontal=1;fillColor=#40189E;shadow=1;verticalAlign=top;labelPosition=center;verticalLabelPosition=bottom;whiteSpace=wrap;dashed=1;strokeColor=#B3B3B3;container=0;" parent="1" vertex="1">
            <mxGeometry x="576" y="-238" width="50" height="50" as="geometry" />
          </mxCell>
        </object>
        <mxCell id="r939p5lcw7S0-f_gpcF7-7" value="Azure Commos No SQL" style="image;aspect=fixed;points=[];align=center;fontSize=14;image=img/lib/azure2/databases/Azure_Cosmos_DB.svg;textShadow=0;labelBorderColor=none;fontFamily=Verdana;horizontal=1;fillColor=#40189E;shadow=1;verticalAlign=top;labelPosition=center;verticalLabelPosition=bottom;whiteSpace=wrap;dashed=1;strokeColor=#B3B3B3;container=0;" parent="1" vertex="1">
          <mxGeometry x="706" y="-238" width="50" height="50" as="geometry" />
        </mxCell>
        <mxCell id="r939p5lcw7S0-f_gpcF7-9" value="Azure Open AI" style="image;aspect=fixed;points=[];align=center;fontSize=14;image=img/lib/azure2/ai_machine_learning/Azure_OpenAI.svg;textShadow=0;labelBorderColor=none;fontFamily=Verdana;horizontal=1;fillColor=#40189E;shadow=1;verticalAlign=top;labelPosition=center;verticalLabelPosition=bottom;whiteSpace=wrap;dashed=1;strokeColor=#B3B3B3;container=0;" parent="1" vertex="1">
          <mxGeometry x="1072" y="213" width="50" height="50" as="geometry" />
        </mxCell>
        <mxCell id="r939p5lcw7S0-f_gpcF7-10" value="Azure AI Search" style="image;aspect=fixed;points=[];align=center;fontSize=14;image=img/lib/azure2/app_services/Search_Services.svg;textShadow=0;labelBorderColor=none;fontFamily=Verdana;horizontal=1;fillColor=#40189E;shadow=1;whiteSpace=wrap;verticalAlign=top;labelPosition=center;verticalLabelPosition=bottom;dashed=1;strokeColor=#B3B3B3;container=0;" parent="1" vertex="1">
          <mxGeometry x="1068" y="-46" width="50" height="50" as="geometry" />
        </mxCell>
        <mxCell id="r939p5lcw7S0-f_gpcF7-13" value="Azure Document Intelligence" style="shape=image;verticalLabelPosition=bottom;labelBackgroundColor=default;verticalAlign=top;aspect=fixed;imageAspect=0;image=data:image/png,iVBORw0KGgoAAAANSUhEUgAAAQ8AAAD9CAYAAACiAvKYAAAACXBIWXMAAAsTAAALEwEAmpwYAAAgAElEQVR4nOy9d5QkV333/bm3quNM9+TZ2ZylDcppFVAECcsSxjKGxwk4BhvwMQ7HNsfYhtc2jtiG188xvLaxeYzjQ7BxwCZIQkJIKCCB0kpapc15dmLPdKqqe98/qrqnp6e7p7sndc/ej05pZnpvV93uqvrWvb/7C0JrrTEYDIYGkSvdAYPB0J4Y8TAYDE1hxMNgMDSFEQ+DwdAURjwMBkNTGPEwGAxNYcTDYDA0hREPg8HQFEY8DAZDUxjxMBgMTWHEw2AwNIURD4PB0BRGPAwGQ1MY8TAYDE1hxMNgMDSFEQ+DwdAU9kp3oMD9Lw7zqUdHcUPRle6KYdlRs/7qjkl+8tIe3rwziTSPt5alZcTj4HCa//z+OQgnAJPc7LxCzBYPJDx/MovnKe7e070yfTLMS8uIR9iWhGI2TtjCiMd5hhCz/1bw3Mksv3v/GaIhyZt2JlemX4aamEGhYeXRcvYmACF46liO37p3mIcOTq10Dw0VaEPxMKOStqXuUyeKAvLdwxk+/I3TPHx4cgk7ZmiGlpm21EYAErQHKBDSf03NHfHOohmdqbY/XfJDzLw27+HrbDurfSNtG+3HPO2LX1kj/Z6vQbAfS/v79aQGvGCT+Jfh7J0E2oFC8/jhKX796y5/eAfcss1MYVqF9hEPYQEuUmu0UmghkQiEqjF4queiLkdVeT3Yly7+b/5DNNK2vH0jbRvtR632es4vdfSlTpEWxYYKpOv/1NqfqmDN6p0uPBWEBiF57FCW37z3DJ/8QYtrN3XUd0DDktIm4qFA5xBaI7RGov1rDiu4sitf3tV0oBZCzN2bZuZeang00UDbYvtG2uLfX/Pdv6Wjg/nal37GRvdds52U/sqK0IAFOhQIR639Bl+GlDx2KM2Hvnqcj//Aeq7f0lnfQQ1LRsuIh6bGQ197CDRCg1ICrbzgcec/lapevU2MPKo+RUXZz/naV+hDXU/owghnidrW1b7JPtdGo2fJkPTPnWUx58xX258QPHIww2/ce5o/u3MdV2+M13NgwxLRMuIBFOf7c25QIUEpBB5dMZv+uE1MOAjtgfCWvZsq6J+s48bSwv9IdbUN2osGRh5171vMfLWijvbNfMZ5WiG1QmiJxsYSmgnH40TWIe/aiILtXktfZmZ1Uvib0CAl3z6Y5bfvH+V33iS5ZqNxKlwpWks8qiLQCDwluGNnJ79+6xoGOiRarczKS+Go9Q5sKujhorRdyn032raeVoEEoBHYUvD4kVF+65tnOHBGgZR1HE/4aqY0XzswheNp/uTOAS5fbwRkJWgL8RDBJFwjSMRCbO+P0RVtw1Vmwyw2jEeIWnZxKOSf5vLpTWE4GlBQNe1w/yvj/Kb0+Pida7hkbWzZ+m3waZ07sMZjR2iNDKzySkscz/h6rAY8JcELg7b8qY/An67MuhbEjBW5YDwV2h+BSJevvzLGh756kqeOp1fkM5zPtI541EVh4GtYFSz0GSB8Y8u9L0/ysftO8sJJ44m6nLSZeBjOTwInQcTsdXMkSAuE5GsvpfjDe4/yypnUivXyfMOIh6H9kQIXyedfyPKxb5zg4PD0SvfovMCIh2HFKNo45m+J7wtSpa0GISVKhPi3F7P8ztdP8MppM4VZalpHPIwN9DxFz3Y8mePwV5inSGpdrhpASrIqxBf2Z/nd+07z2nBm0XtrmKF1xMNwHlLpiVFuFC8NDKj1hAlsIlKQ1yG+9EKOj917kkNmCrNktJZ4NOohZWhzgulIQRdqjj5rNSi7aCQ4SvL5Z6f42DdPcXzMjECWgpYRD7MIez4jaP4KqPQ+3w/E0Tb//Ow0v/fAWQ6PZhfcS8NsWkY8wIjH+Uuz4jHPeyxwPIu/f2aaP/jmKQ6PmhHIYtJS4mE4XymfjiyW9VyAJcjlFf/07BR/8uBpTo4bAVks2iK2xbB68dOxaOZkUC9Sx/OtkPejmO6t8J7gNQlZB/7h+ymUgo/ePsT6bhMLs1DMyMOwYizrNFUKph3BZ7+X4k8eOM3ZVG45j74qMeJhWFmWxL+n4FBWtnNL4CrBZ78/xce/dZazk0ZAFkLbiIcu+2lof+pNetT4jmvs3BJM5wV/9d0p/uTbo5ybcpeiB+cFbSMegFmOWWUUwvCXHSlJ5yR//d0JPvntMwybKUxTtJd4GFYVKzeK1CAVU1mPTz46yiceOm2mME3QFuIxr/OhoW1ZkfMqgroxliaXh08/McEnHz7D6LRxJGuEthCPQtiCcUM1LBqF68gSTOUEf/34GJ/+zhlSOWdFu9VOtJR4NFNnxWBYMJZgPCv45CNjfPrhU0xkjIDUQ8uIR7HQUIVxbLFOkJm/GBZKtWvIloyn4U8fHuELz5zB9Za/pEe70TLiYTgfWeJ5aGnpO60RWgU5+CuohwakZHRa8MSxKdJm+jIvreOebmwZ5ymimA+oVv3cWWU+a1GyH40NWCAcwMFSflkHJYT/eukOg5KWaAGehTJz6HlpHfEwnH9ohfZc8DRay9oz0irlPmf2VfKrLnlRKsAFpfC0RFhqnpmvwEIizMNsXox4GFYMG+iwNWFbY1vVdaEwCKg5+tBz9cXDA+kitIelJa4O45CjtuFMIMwwuC6MeBhWjLU9HbzrmjXcPgVS1J6VFISjokdq6ZRn1rRFoIVACA9bSEbSmi89P8bxCcc/oGFBtJl4lCXLNbQ163vjvOfaGFpXXWgDSv6tQZsHaL9Crp/Wg+NjWZ46dI7j4+YaWgxaRzzmPZ+zBq+GVYAUELaWcgQwe98dNsTIAJaf88MYNhZEmyzVaiMZhgWjlL9ca5b2Foe2EA8tdeCibrzEDIZWoS3Ew2AwtB4tIx6F/C2VR5SFF2W1BgaDYZlpGfGAWrIQVEc3UxbDAlix5EOrlJYSD4PB0D4Y8TAYDE1hxMNwXlF0NjPTlwXTRuJRmk7MYDCsNO0hHsUyHNJYvAwLwpjcF4/WcU+vgS8XGl1UEYOhOczVs3i0x8gDKJ52ExhnaBYz611U2kM8hJodc20wGFaclpq21JYFZZ4aBkML0TIjD01gC62lICYuzmBoGVpGPGpSIhpm8GEwtAbtIR4Y0TAYWo22EQ+DwdBatI7BtMWGFlqD1iaD2UogACnmyYhsWHFaRzzmRSyLsVRreOLoNPe9luL7J9OcTRXKDpYm9i+9quez4pa3r1VNqNF9lw4cG2m7lP1odN+lbf1jDCVsrtwQ5wcuSHLZ2ijSZDpvSdpLPPDT6S8Vk1mP//O9CT7z+CivjWZw8h64hZyX5VsBTfWbpVL7Womcy5Md1SrQK6gsHvW0LfSjWttq4rEU+y5tGxzDFvz3y1N84dkp3ndNDz99VTfxsJlhtxptIh4SjbekHoJaw1deSvHHD45yZiwPtgBLgl1alrBaByrdWNXaWg22h7nitBhtq/Wj1k26FPsub6tBa/J5zXNHs3wsNUJ/h+Qdl3SbZOctRpuIx9JzOuXwny9McGY0A2EbECD8i933iK9+U+kqN1GtzGiVRlDVi6HNPfbitJ3b79qFl5Zm3zNtg6IrQvhfd0hzdjzNF58e49btnQx2msu1lWidszGP2UDX+vdF4PWRHC+eSoHIFQ4J2n/SivlSIFa5K2qG4VR4T9X2rdB2WfqhiydaC4lAo8lzeDTDkdG8EY8Woy3Ohl6GgKac55FXDggXpEBjFcP//bzMXtX3NpoloO7qZy3StvieCu2r5axuum1xbuKBEqBD5D2LnGfWvVqN1hKPqtnTKfmHpVGRzd1hNvV08uppF6GlLx5CFqf5NS9dzdxZjZ7nPRXskXW3V0vUlnlGeOVfvZ71Y+6/ldtz620LoAVaC9CK/mSYTd3hGh0zrAQtIx4Fm33153slS/3isbknyh0XdPOdI3myOQWWjW/Mq5PqHV94+0YeukvVFpb2M5a2FfgqphTRTrhzd4z13S1zqRoCzBkJCFmCt1+S5JVRh88/O8F0xgPtrnS3zj8KwiEUyaTgHRd381OX9WKZpZaWw4hHCVt7I/zBHQNc2B/i2wenOZ1ymHK8mYJUVahq89BVRvrVDKyz5i+y9r7RQftCI9FYPxpoO2+/y76b5ttqNJrOiGRd0ubWbXHefXk/PXEzZWlFjHiUsaYzxIduGuBdl3dzKuUyna/lLRlQ40asm8ITt/gmOXvfulbbYDpXbkeZ73iVaHC1pep7mmrrr7Z0hiXrk2H6O0M1OmNYaYx4VGFNIsSahLl4DYZqtIfPb5n3ssFgWHnaQjyEnsd5yWAwLDttIR4Gg6H1MOJhMBiawoiHwWBoipYSD2PWMBjah5YRj3pLLxg/Q0OzaA2u0qB07fxGhrpoGfGYDyMahoUSsQW713SytjtM2BbYFgjhx9DgBZvSeM2EHJ+HGCcxw3lDdzzKx+66gF/Oac5O5nn1zBSvnJniwOkUB0fynMyFSXlhQvZ8Ic4GaCXxMEJvWGKkFAwkwgwk4ML+CDduiZNx+sm6Humc4viky6EJjzUxCIfaZlC+YrSOeBgMy420iEUsYpEQPR2wvhf2rXSf2ggjrwaDoSnaTjzMVNRgaA3aZtqiKQS41BEibzAYlpzWEY95hxRBA2NYNRhagtYRjxpoUchCbJSj9fGXOV2lUUqjtMZTGq3BUxovqP/rKMHwtMek481Jj6+1ZjTtMppRqMCRy7JgIG7RFZt7yQ51WvRGBUprbCmwgvKUlvRXWGwpg9fM9bOYtIV4zCROr1bG0LA8aNJ5xVReMZ7xSDuaqZwilfNwPEjnPMan8zhKMz7tMJV1ybmKsSmHvOcxkXOYzOZQCDIyxrSycLQqEY/gRGtN3tPkS5IiCwERS2BbcwUgZik6RA5Le/R1hukIW0gp6IrZJCIh+jpCdMdD9MRDJGIhuiOSzpBFMipIRm36OkqrAhrqpaXEQ9QsvcB8/2hYAI7n37A5TzOddRnL5EllHaYyHqmcSyqnOJfVnMnA2JTHyYkco1mXM1NwNqXJ5FWx6FtlgtgCGfbFQnsgXf/3hZ7WokdoBM7AjF3MA3KzUjnaIcHGhM1AFNYlbQa64mzvi7A2rhjslPR2hOjvjNAds+kISyJ2260pLBstIx61B5WFknHLO/T0XJfRtNPEO2eKlAgpSEbDhEMNlHFYMhRTaYeJjMN4VjGSE5yZUoxlFWdSLuemPc5MOYymHSazji8eOZdU1mUqD44rQAp8/20FUoMMgbCrXEkFYSixV0kRFHMSMyMO4fet/K0VqSROsuyXGpXpXFdzaCTPIc/zY1xEDrCIRj0GOgQ9HTb9nSGGkiG29oTZ1h1mc7fNugSs7wqRjEer7Pz8o2XEozaVsgAvHc+fnubbh9O8dDrD2cn8rB7Uh38jeBqituRXbl7LFRs6Fr2ftXBdjyPjeY5PepycdDg6kefcVJ6RlMNwKsfwtOJ0xmLKlTgeZF1F3tXgqqD0QaFurOWLg7AhDJDFkqC1jbLKxGEOZa8XEjdr8C89C6E1FQu8NFDGciYURVVtM2uH0sISFiHl4qJxpSTrWRyb8Dg27volN2QGKyRI2JKusGBdl2LngM2ewQ4uWdvJJeuirO86v7O6t4l4LA+ZvMuXX5jgU0+M8tTxHG6uWbEqjDz80dJbL3K5YsNi9dLHU5q0o0jnNVlXcXIiy4mxLKfGs5yezHEspTmakpye1pyddhlLu7NzwSIAD4RH8ekvgFBQfkuUx3cUlskFWkh0oY6KZp66FKV/yJIRZPCPBZGaR55LzKmzfpvVj7mNA8ptZRpPCIQUKDRCOHNLmmqB5ynG85rxaTgyrnjsaB4p0mzqnmTHQISLB0NcsyHCpes7GeoK0x21OJ/KyxjxKOGbr6X46H3DHDqb84fXsmS+29BFETRWCjzB6LSDVgohm5s/K6WZyrmMTzuMZx2Gp1xeG/d4ecTjpbN5jow7TKQ90nmPjOORc5Q/NUAGnwPA8gvgVS0YW/WPQi+C1625kez1roLNaqdBeCUv1Zy0lpWrLPw/uOOLYlguJAXfoMIHL1FPqXGLx6zgOySEv0kNWvr70BZKaw6PeRweTXP/q5quqGQoOca+TVFu39nJ1eujbO6JEG2JaerS0mbisXSyPjzt8MX9ExwaToMNAqv8QdT4pCm4ns9N5ch7isi84qFxXI90XnM2rTg65nJkLMfxiTzHx3OcHM/6I4yUy6QbIq8lytPgldgOhAXSmrEDlD5RG/n6milytRw0cx4W8dizhhZaMJHRTKTzvHwuz3++MMnFgzZv2BLnxq0JLl3fwbpkCLFKhyPtIR6FCmrFjEGLz6GRPPtPZMDT2NJCIRdNq8anHRxPE6lSBsbxFC+eybL/xASvnZli/wgcnLQYm3aZyHhMZBXFIvHaAqyZvkkBIUDr4CV/ulHQDlVaVK7KXVc666hZ86m83eq8J+pHAMWlY81ERvHIoWm+d2SSLzwzys6hJG/c3sltOzrZuyZKbJVF6raPeCzx42Yy65HKOCA0CoFGLNq9MZ52cbzqbvXpvOJTjw3z2cfPgtBoQiBCM/YBEUw/EMxMH4JNzNzU5aYHof0HpYaZ6UqVbGyyzMQxV6PFnN+WcwTQ8t49AoSUCCxcrTkylufQ+BT3vppjQ/cEb7soztv2dnLJUEdFR7d2pC0+hX+xqlnz3cVmfVeIdT0hXhvOoqR/Y4qFjnKEf2efm8qSd6uLRyJisaMvjNbSt7NYkqI4zLrzmXm9RERmmw1k8W2F7otgTl9rsVsHY5VawlAwTi53DZ3SUY7QGolGidKn+BxrZ0WxnNXtWnaf4rEK36EqaR+MgCn3axFoIdDSP49SOwih0VpzfNzhf39nmH/fP8Yt25L86N4ubtwao7vNa/C2hXjMXAGL4FBUhW19EW7d3sWjh3O4LmBr1Dxz1fluIi0kSMWZ6Ry5GuIhpWBLUhIPK9KeVSIYxT2B9lc6Kg0dVMmKg4Sy1Qvt206LfRIley45RgPfq1qicwAUHQWrf7UFI6m/zKuF8O08Jcu9QnvBVyhB4QdVlohJUWvKxKJUCIp/CkAq//sXEv8b9sVbaBXsJoTGxhcUhRYST4f8NwsVKLnF0RHFP4xM8NDrU9y6JcpbL+7hjTuTJCLtaVxtD/EQOhjCw1KNPCK25B2X9PD0SYevHpjGddXMdVLOLMt/DYQALTiRsUjla7ce7LAY7LA4PFGtRemVXr6v4hADNWMMCW4U5f8+a0Wh9C4q/N0aBowappmZFhokOhhzSX9VSzj+Da5B44C0sGWIsCUJW5KIDX1xm0hIIAQkohZdMQtLQNaFs6k8XjCYODvlkcoqNJq8p8hrjfbyvhgJAA8hFAgbJQs99mb3Ucy2b0gEWAKl4ciIy+dGUnzrUJa7LpzgJy7v4ZrNyYqu961MS4lH7Ytm6Q0fe4ZifOZH1vGpR87wj89OMp6XyEp+BAGC6qMP7T8c8TxJLBpiyq197MFEhKFklMNjuRIjXDOUv7dUKGo5Q7TPhas1aO0FN7M/CrBtRSQCHdJjQzTP3qE4Owbi7BzoZNfaTno7woQtQRAzhy1n4mSUhryrit9S3tNM5TyOjaR54USK18+lePlUjiOTgnPKIudqci54WoMbjC6E59uliu72lb9PKQBbojQcHnX5/56Y4L8OZHj3VRk+sK+X9d3tM5VpGfEoztGr+SEUGy1tP9YkQ3z0jrW87/pBTqVc34N5AfvTaEJSsL2v9kXR2xGmPxEGnW3wCI30rn0EoiIatOtPQUJhwZqIy+Yum439nVwwGGPvUJTdgyHWdlpEw5KwtAjZAiHqWeWYO3XYvSbKbRd043iKvKeYyLi8fC7P82dyvHQmx6FzaY6OTnNqCqY8Cxzt26ykZF5vMSHADqG14NiY4o8fGuXRw2nef003P3BhJ8k2sIe0jHjURM884Zfj8g/bFhu7LTYu41MgGbPZ0BVBWKI4QyuOFcrn6EVWiXCUzMgqPhuU9t3mpWYoGWbXYJzrNke4ao3F9r4QWwc6luhmE9i2hW1bxICueIRNfR3cfiE4rsfRkTSHzk2z/2ye7xx3eO5UhoOjDm5e+XeWrLLcX/qAlBKkhet5PPDKNAdOp3jy8iTvvHoNl6yNL8FnWjzaQzzOAyKWYHN3mFjEIp3TvnNr0dq/ehEa0IG7u9ZoFMWVJOUbPO2wxUVDIW7YYHPrzm6u2JRkfTJE2F65LydkW2xfk2D7mgRv2qv58ZTLgTNTPPhamgePZNh/Os3otPKNuaLwmUD45lvQoRIPZuGPREKCkyn488dSPHEKfm5fD/fsTbSst2rriMcqv0nmw7Ykm3siJCIh0hkHZq2KBMwysJQs51ZMRVs63ypt2zrG0cJcVRdXMQCRBzzwFFHL4tbtHbztsj72bYqxrTdEPNw6l+wMgjWJEGsSPbxhWzfvncyz/1Sa/9k/zr++mOLMlIcS/lKYRPmBxYVpkg6EUmv8EAKJqzUPH0zz2rkcL56d5tdvGqQzWsXDcAVpxTNx3rK1J0RP1OKMdtAUbiqCZcKV7dtSUQxsK9xACvoTFldu6OSeXV384AUJNvbFVrSPjWBJwcbuCBu7I9y0Nc5de6f40ospHjo0xaFRB+UJBB6WyPlVL4UFs3xs/FGKFppTYw5/8lCe4VSeX7phgN1DnSv3wSrQRuJRiMhcvQx1SrZ2aQ6cmXHaquoSuhooOGApFzzo7rR54/YEP7I3zs3bk6zviqx0DxdERzTCnXsi3LC9i+8dm+IrL07wlZfTvDacBk8hpReIRxlCIBDokCLvaP76yQmOjzt86MYBbt7ZPb8xdploE/EQwVxYlvpTrjr6YpIdPX4KPTXLFb0ajUxBWmi6UkADysOyPK7ZEOID1/Zzx64ehhKtN0RfCMmIza07url6Yydv2ZvhM0+M8l8vTpDOBudWEhiLBX6OE68YCS0sF60l//OKw7HJMX77dpt79iZaQj/aRjwoBHG0wJe2VCRiITb1xbGtjJ+YR1jAjLGt/SlZVlGA0mwbiPBjlyb4iUu62D0YQ1qtaRxcDDojNrduT7B7MMbtOzv53HdH+c7RvB8ZbfnLaVJ7hHQarSFvxYqBvEpYPHfa4cNfG2Ey6/FTVySxm0zxsFi0jnis7hlJfQjJxp44idAoI3nHz/e5asRSI5XvNq49i2jU5k07Yrzvmh7u3p1ctWHrlRhK2Lzn6j72bYjxt0+N8cXnpjg55oDUWHgIDV7gnay19EM0hT8aefWsy0fuzaK0y09e3kdkBVecWkc8aqAL3tXngcBs7gmzISEYTTkIJfwAMFnLc65N0MH4yYX1vRY/e3UPP7Ov97xO5bd3bZw/ujPKvg1jfPrRszxyJIOrNUqG8ITtL2EDswIhLcWJsTwfue80WQ/ee1XviiVpbq8EA+fB02lTt826pI1GIbWDpFDXpM3RgLK5emsnf/HWdXz41v7zWjgKRG3Jj13ey6fv2cC7LksghcIrZIEDfHtfaUY7Abbg1Fie37n/FH/75AieWpmnasuMPIpxIlXvk9LUWKuXwU6bwa44iBxeISFHu39kpYmHJXftSvLLN/Rx/ZbW9pxcfgSXrEvwx3fZbOuL8TdPTXJiXPmBMBUfmAJsyfCEy8cfOkcyYvPjl3Yve2BdS4085v/oLbhisMjYlmRnX5hQJByEerfUKWocT9MRkfzsNT38+d1rjHDUYG1XjN9603r+8M1D7ByI+G75FUMSgpGJbXFsxOV37h/hy/unlr2/bX5lrk4uX2vTFZsJs29PBHiK3k7Jh27s5yO3DbLOTFPmxbYEP3lFDx//wTVctSnq1+/QNeIULMHBc3l+78Fz3Pfq8gqIEY8WZPeaON2xIE9FOyIkeJoN3YKPvamfX7u5n/6OlpkhtzyWFNxzUYKP37mGG3bEwaVYKEsEQaKFLXgD+0/l+L37z/LC6ell66cRjxZkIBlmW18oWGVpQzyPLX2a37m1l/dfM0BHePX6biwdgtt2dPLJu9Zw4wUJX5CV73lamLj4mXYV4ILwePj1Kf7822cZTuWXpYdGPFqQiCW5en0E21agKlRTa1U0/oijy+K3b13Du64ewja1XhfENRvj/MUPreG2HTHQGlUWoiE0CKUQ+MmI/vm5af76iRGyNdJeLhbtcWZ12bbKCVmCK9eFSYQcf+rSLp9ZaXriFr920wA/fsUAIduMOBaDS9dG+OhtfezbFPVDgXRh3GH5OWmFhRYWQggyOcVnnkrx7/sn5wjNYtMW4rHKvdIrsrMvzLoOuw2WagNF9xTJuORXb+7nvVf3rqjn42rklu0JPvrGQS5eFwUPdJB2z1YuYZUJkkH7s5tjoy6fenSU/SeX1v7RFuJxPtIXt9nWFw/iW1qVGeGwJbz3qm5+4boeOts0G3irc9eeLj5yax8bemy0UoCHJI+tHSR+ktxC3vfHDk3yL0+eqVkvaKEY8WhRumMhtvV30Fydy+VCg/KQQvGOixP88g0DJFswac1q4p6Le/j1W/rpSwi0cnGkTV5G0EiE1r4/qvDQnuLzz6T40tOjLNUFZNbPqjCSdjk75TBdLJlQkrRmIfOIYHdrk3ZQx7Rys2jIYudgiFhEk3FKj99CaMBTXLu1g1+7ZZBNPcaPY6kJWZJ3XdXDq+fS/OVjYzhKgPSzzglRSHGoCdmCI+Pwye+Mc+GaGFdu7Fj0vrSMeNSVPX0ZGJl2+a8Dkzz0+hQvDWcZSRdqJhTSxsGcDlatv1DeNkhopD3efkmS33zjmqoFf4QQbOuJMNhhc2TUrZTce+VxFBt6bX7lDf1cvn7xL05DZZIRm5+7pp9XTue49/V8UMGm5CEngqjcsOR7JzP83ffG2LUmuuhL5i0jHjB/2pulTqp1YsLhd+8f4V+fG2csO1NEyD+q6/+s5OknKi0DlbYtcavXLqgc33xd8zP7emtWC9veG2F9p8WREYeWGHmUDsI8TTKq+eC+Pu7e27OSvTov2TUU58NvHOK1idO8NpxFWKWnJ6ikZ2twPb72ygRv3RXn9j9ezhUAACAASURBVF09LOZ1ZGweAY6n+eJzk/zdUxOMTWnfbG358QPYhZ8WhCpsdqVNVm4TkhDSnE1Nc2i4tjV8bcJiZ7dGiEKMQyusWfuJfITUvHVvkvdcM0DELMkuP0Jw844kP399D8kYqCCy1l+6DdpowBIcGs3w+edGGZ5yFrULRjwCjo/n+drL47i5LISpUvVL+8FKheReQTas6jdySUV7oWY2JBNpeP50tnjSKxEPS/asiRIN+wlNpPKwVA5JjuXPLiaCMgIWKM3O/hDv2TfAQDK6zP0wlPITl3Vz964EKC9YvrV8/w8d5DYUFlrbfOWVLA++vrixL60jHis8Kj86nufY6DTIPOAw9+b0A5QEColXspUIRMXNX1IrblogCTGeC/PcGUUqV10ELMti7/oEHVHwXZA1EtevwL7sIw8LpJ+gJhKWvGNvgus3J5a5D4ZyBjtDvOfKbvYMWOB5+Ld0KFjiD0payBDDk/Afz40xOr14ruutIx4rjCXBlr4xU+o81Z7sYiawYCa1asNHE6Akr4+6HJ+oPZTcORBjY5cA7aKwcUWI5T9tgfeR8g2+122K89NX961o0SXDDNdtSfD2S3oJRwpFvwt1cAp2N3974FCOB15bPMcxIx4BW3rCbBtIgg6jsVnyoZCAQ6MOB0drPwmGkmEuX9dRzJakRRhPhpc5z4cODL0OfQnB+/b1sK2/fWqprHbiEZt3XNHPFRvifiyUKhj7RUmtL8GZlOafn5lkOjdP1fU6aRvxKCx66CUarq9Nhrl7dw9dyTjas4LEqZX7UWlrGCE4Nelw4GymZhq5RNjioqEIUgrQyq/nseyjjxnxuPvCOHdeYKYrrcbuwSjvvCRBVxzwHPxpcskVKvwp9GPHUtz7yviiHLNtxKNoP6jmU7FALCl4+8UJfuOWXoa6bPCUn4ilbNMVtkrtqm4qSNOhPDzH5YUTKVKZ6lMXIeDigTAbEv6QVOCuTPErV7G1B/7X3k6642Z1pdUQQvBjl3Zz3aaYn2ldB+JRmvzDgrPTDl98YZLR9MJHH63j51HzftBLNuIopTtm8cHr+9gzGOHbh9McHXfIuAUfk5LjFwSsos9H8X+VCR4EUrsordnUE8Kd56Pt7IuxszfG0bOTICIlBZKXSUS0b9h507YY+zY1nkZw/8kpHj8ySc5VCyqxoLVme2+Um3b0EK8zfibreNx7YIwjY1ksKWpORit/mzpw4/Hfe8vOLnatra/sYyrr8a1X/WNLIZh11mqMokXJ/9H+DCQWkuzbkmDPug6qXV+9nRHuubiH7xzLkMroom9UySdBezaPH3N5+mSGN+5Y2AiydcSjBlrqmYWLJb5hOsIWb9nTxZsvTJL3/PwJi2390P7kA/Avg9g8VdDXdcW4oD/OA2oCS7tBVrplsMsUUIqhpM3tF3TR29l47Mpjx3L85v1jTGQ8f/rVBBrQnuaePQku39RVt3hM5zV//WSK+15OIUK1xWMWJb4SUimUthBC85fxaN3iMZZRfOapKb7xcgoh5SwnYSUKy/cEIwWo5MUslcT1NP0dkt9/c5g962of+807O/nHtVEeeT0LYva1qwGk5NSkx6NH0ty8tQPban7y0RbiMcPyDdfDliC8zNmoqxGyJZet66AnEWc8k8MSLp6Q6OXwWdeA0uzb2MGNO7poRrAcBWlH4Dh+HEbTeJpsE7mRsgqcRuODSh2tghSACHAaPL5/7AqfWxCkW9D+z9JLu7hCQnGlP+0IP45lHtYnQ7xtbzdPHjtLLu8hSrRBBP5GuSw8fjTNiUmXzQuIR2oZm8f8pReKrZalP63GZRvirOmNoHQEj3jgBLQMKOiIW9y5K8FQsrkLTfqVAopuBwvZmtFzSzRxrJIk5dISIP0V0Ea1b9axAx87OedYYiZvS3lfLQ2WRlr1Hdu2JG/akeDqdVHw1GyTh9aEvDxCZXnm5ARPnViY01jLiAfUkAUdBJSdB0WfqrGlJ8S2btv3GKTgALQMKMVla6PcsfN8Dnxb6uuuxkOxieflzr4Qt20JE7GDtIVF84lACRtpwcmxLI8eTpFbQLrClhKPqhSMkCuxytAi9EQlVw5FCEXwLelLseqkCYTa9ofOSiEtuGFLnK19q8wNvYE1d1VMN7zwAxb+Kx6s6k6bdwqIhCyu3xJnQ5eFVsqPohACT1i4MuzXQPZCfP9YlqNj2aY/UXuIh4GQbXHp+hj9MbFkeU0FIJSF8MKgLPAUG7sEd+zsZLVNFyvNZGq3pvLqWr0HK5k/aKlnHoiFI8/yWtZVtvoPuWddJxeuiYJWaO3nOUXYgMQjBHaY/Wc9XhtpPljOiEfbILhgTZxt3Za/drcEaAFaaLQsBPFprlkX4sp1q8ubtFnLWTtZ3NZ1hbl+SwLLkiXXixUIoARpcS4Nz5zKN13rts3Eo11O3dKwtSfE7l6JFEuUUV3j14qxXMAlGhbcuC1JV7TNFuUMWELwhk0xNiXtwMWhEKAZXDgC0JrHj2SYqBGcWYv2EA9/gZqZQJ/zk45IiKs3ROiJLtFpKx3La8VgR5iL1ycRC1lebbQLrWjWms/xb6GUxqDowt8Lv9YvHopy9cYIeCCUwlJZv75LCc+fyXJivDm7R1uIhz/l08vp5tGy3LC9mw3doaUrRakL/vOSC/qjrOta3oTGrT01WKocKiXh2aLstQXQm4iwa6jDdxYrOjsWvC19B7XRtMP+E6mmFiPaQjxm5cZoyUfT8nHBUCcXDkWD0cESHEAHVeqkZNeaKGsTyxvHMl+y+BUbeM4qDrvwXVX+kKVW04DSUUjDvj2CvUMd9CYlSqkgErtEpIQm4ypeOJ3DbaJEQ3uIxyxL8/ktHiHb4sZtCWIRuTRL1xrQip4oXDIUJhFZXntHa57dpmOn51B9PFFtqlIqKI334fJ1Efb2SfBUcbG4NNLWcTXPn/PIzhdgVYH2EI8C5/moo8ANmztYl1jCm1rDuoTN3kFTg8UnGHXoxROR5WJLT4i9fSH81LO6ZNgTSInWnEi5nEw1HmXbUuJR+7SoeVucL2zqDrFvQ3TppuDaYigZbS3HsJU+9Vov1ARR/wCmOd+wioRsyfbBGNFoDIhS6ZYfnfY4PNZ4esKWEY+Ckbn2hHeefz9P6Inb3Lytk1B4HgNBU/gBHOuTNt2x1hh5tLYRtX4KITPzM7PsJbUEHfxs0jtlXW8H8WjEd/yrEMgzlvE4Md64s1jLiEdNSmxVq+EiWihSCK5cH+PSNSHwXIRSSKUWZ1anPULSYWPSrxKxuIgK2/zv0cHW/NmfbU+o7fjdTB9rsdJPPMFgMkLUVqAyULZUi4C0oxjJtPO0xahCQ1zYH+bGjSFs7WCrDLZ2EHoRnMe0IiI167rCWHKxLo+CzUD4SZRnbWLuVgxJL39KFoICG0AI/4mr7OB4vpflrEUMIfwiSSJY0ShupQGIAo1FQ7ljCzk7AucsrUVxE1ogVJWtxCO9cDr1Aqbt/R02vREN2vO7M/vD4yrN2HS+4aLYrSMehobojIa4fnMnaxJhPC1RQqIWZXyvCUnBhq7wogUxKwR5pf00jK7wt5JqFHVtgbC4qvEANc8rPab2i//NSRFZ6bgCXOVvQZtGPLm1xl8CdT1wNdoTdW7MSXOZ9zRek6tryZBgfUKClDP1XIq+JQKtYSydJ5NvbPTRZn7HZnhSyhWbkuweSnNiIo2yF8kPQUEyrBlaRP+ObV2Se3aESOc0Eitw2Cz0dfY5LT5pBWVTFYHSmus2SKINJPUISbh5kyAhLCwrCExDo8XMiGI2suQBL4MWEoU/ItjaVfehiYcEN28I0akiSMsqOWZjKKVJRCVbe5p7f2dUsjYRwpYCt8I9pDWMp/NkHY9kA2FMbSQe/kld/KSA7cum3gjXb4lw/8Ep0Db+Ve8tUGMthjqgJ7J43/MNWxPsHQz7T+05w5n5BG+mvdYQD1t0RusXto6w5P1v6COT7ykm06mdD7dK/7T/b30NpGHsidm8//oh0ld5wcdu/juVQtMdjzT13s6IxWBnCCsYSM3qhwAUjE05ZPONpUlrE/GQ6MJNYbSjiC0Ft++M88/PjPH6Wc3ilJsRdEchsogFnRJRm8QKBddZUrBmhUpi2pZgsAXKcYYt6IjIKsmn/dfSjofjNTZybRPxWG40o1N5jk84nM34hj6BP5SuNDNYdJdp7f+vKybYuyZGvEaC5Ks2dHDHzm7+cmSUoAL1Ao+t6QxbhE11hVWDLQWJkMYqrrSUXyPNTXdbRzxaxH/j9JTDl58f5TsHJ3h1xGE4YyGQJeIx1yJd0aO4XkpGxaUe+MrTbOqx+eMfXMv1m6tnzI6Gbd66t5OvHDjH8VHHzxK1kOGHgEjYwl60lRbDyiPotBxsHP/hUvoEDB5UOUfhNpjXo3XEowbLFQx1aiLL73/rJJ/7/iTpDP5yXWnuDE3loUej0/hq7y3oUhADeHTC5esHprlyfZyIXf1mvn5TlNu2hPmH8by/jwXe99GQ5SeRMawaorYmJFWwXFT2ANSQ9xSNxsa1xxVSNDYtnYq4nuJLzw3zuafOkc56hcrXfvpre2aTlpyzCUv67Qub3cAWvEdYEmn7m2VLZFiiXfj6gTRH5qlnm4iFecvePno7I4sQLKeJhS1Cy5jDw7D0RGxJ2CqEYldyj2v8fLeMeAj8JFbVP0Op09Dic2zc4auvZElnbAjZC7cdLBD/a5C8POzw6MHUvO2v3pjkmnVRgiWpBWHJCosihrbGkhIxp+bDwu6nlhGPlebIuMtro9q/c7SmkTyhi+IVXmk/FkzmPO57fZrxedyHN3aHuGdXnN5okI9jASMQTy1NtL9h5Sj4wlV7OAsaf2AY8QiQMijGU1qtq8ItvYgBjxUpzEhVMWmLx0PHsjx5PFPzfVJKbt6Z5OKhKDO5KpuZ6knSOY3b4LKdobWZdgWZihXn/GjheFhiN7jCZsQjYEdfiL0DEfBsUCF8190yiRCgkcVALX+r9RUWplr1BVoV9y0luqBmQnFiPMcDr06Sn6dAz/aBDt50QRcRKZiVMbuReBBtkXNp2PJuaG2mlU0ee05cS+GaDIcaX2Ez4hEw1Bnih3d30pOwIB8kfildZZk1zCgTgjkJbMu30hNWo03BMFzaVgjwJPe+mubFM7VHH7aU3HFBkq19kZn0Jw0bLxRZx8VZqhyphhVAk3bBK49rKVxrQhC1zwfxWKIHopSCH9rbxYdv6mJ7f2CVVip4gnv+T63wo5Z0yeYFm6qweVXaV2lbsFXoIAJL6WC5WPDS2RzfPjg973TikrUx3rI7EQiSQigXoRtwO5aaVD5H3kxbVg2u0qQdFQT1lY+C/YdL2BZYDa6wtYWfhwieokttxOuJ2/zijYPctK2Tx49McPDsFIqZlY+gNxXe2USsRM22JfEc4AdyeR59YQdXKWyr+jQkGrJ4695u/u9zkxwfc5HS80PO6526SMW4C7kmqtEbWhPH1UznVc3Ec6tWPJaTaMji2i0JrtnUQbrBEOWlRGt/uS1Sh1XrsvVx7tnTxV88Mlyss1rnUcDSnMhIxnJm5LFamM5rzk4rv6KGgNkPMI0QkIyGGo5nMuJRBSklndHwSnejKTrCFnde0MmX949xYsLzHdzqQoCymMxYnJ1aPJtHztVkXeWnAV2A/4jWELIEsZCk3oek1n6mLMfTCzs2vv08FpaE60wJoIJju4txbCBmS8JNBCxO5DTHx4OcJbL8oeD3bTAZpbPBTPlGPFYpl2+IsW9LnC8/lyoxxtaBlriu5PiEOzveZgE8emiKL+2fZDqvqTHjqt0t/Hifq9ZHedeVPXTF6rt0p/Mef/XEKM+cyhKyxNzPU8cAS2jt5/MA3n1VNzdvqx5rVMpo2uVz3x/j2ZM5bFF27FnFq8u8PEvjMZTA1ZAMC3704gS37EjUdexSJvPKz46uALvMwUBrwpZgMBHGrhECUQkjHquUwUSYu3Yl+dahKUZTynd+qwuB42lOTDp4nsZuIPFONV45l+dfnp5gIuv57v7N4ilSmQTvuLSbenPy5FzNva9Ocd9LUxCae+w5D+IKCK3wtIUQmuu3xOoWj3Recf+rU3zjpWmQctbqhCqkKBQlsSa61K4WWNqURLma3k7JJWsj3LKjrkPPYmQ6w6STCWoQl1UL05pk1GJNZ4hGHxUts9qi8TPNzZs93VAXUghu397JdRvj/jVR73cnNJ6nOD7h+KkDF4His67mcnZ9WzNBkn65FV1xf6raRrAFo/2Cwb6xw/v5SovHKtln5aX8Cv3zd4MHVBg31fPpOTWWJZvNE+RzpHy1pTtiM5RoPFN+y4jHfMxdhzDMx8buKG/e2UVH1CrcQcyrIoHQHJ/MM5lpPB1/tV2KSiuETWzNnP9ax5YVtlnt/UoU/rGbOHj5sYWY2d/MVvLhavSzWY6NOmQyhdHN3J0nohaDTRQRaxvxMDSBEPzAhUkuG7RAuYHfStmdUU7gC3B6wuHQSHPV01cfhaFb+znOZRzFiyN5snmBIEKlREC9URjoaNwY1TriYYYUS8L2vjBv3R0jbAeOaCJY8ig8RstKABQqb51Kubw43HgVsaVmsXK7FOyVVSs/lKACnW3az0gQ2DcUWihUwXEJyg5WKuplo5Emb5CXh/PsH3bQIowWUWaZOTXYFlw0KOhuIC9sgdYRD8OSIIXkrj397ByIlBgeggtU4dcPKf0vMOSN5jwOnHPJOu33tJ2P0rFX/e9o9D11dGDOHkv/XpyjPXc6z6FzLlgKLMcXsRI6IpKrNnYSaiL5kxGP84AdAzF+6rJuwmGCx6cfc1/18hQCFBwYznE6tViupmZoudxorXnpbJrJKYXEA7L4RWuKDeiJ2ly0LtmUQadtxEOX/TTUT9iS/PCeLi4fCgXmfoXQDqLaHF4ACl46m+dEE9XTy9GFVYe2FRDRmK9MoyzRd3N2MsMLJ1MgBFKHsNxQsWJeYX524UCUdcnmnCHbRjwAZkLkDY2ybaCDO3f1Bi7IyheO0rqGpVuQ4+HEpMPzJ1LohQYVlQ7T2/L0LbXwle+/wpptEwW9njmR5enjObA0WvjnXMIso/kV66N0NWHvgFYSj3m/m2CVfFGqOZ9/hC3J3buSXDQgQXkoCmUbC94HBUeKmQjEbM7j269PMtlEEeQ5mLyG81C+lF74vfT81P8d5j3Nw0fznEj5a82e5eJZHkrg27W0SyzkcelQiFCTjnutIx410EIFRmlzAS6ES9bGuWdPJ5FQ4ckz1/dDIJBIhPCLUD9+wuX50wtdsi15si7wFK7uZ0clX5wSUW9g2HZyIs9jxzL+24QEbaOxA0cWF7wcF/YJLuxv3DmsQFuIx4x5vPlK4QYI2RZvu2yQq9bHwXOLy4dzn3DBPS4Fh8cU33hlenE6YLS/TsrPR+PX/fMnUrx8JlvipeY7CgqdQeg8KME1GxJs72+gOG0Z7SEeQDNfoGEuu9bE+dGLk0RClOR4rvK9StCO4uGD0xwbrZ3F7PxgJdSv8Ws+m/d4/PAUZ1J5sMrtJwLlSfq6oly/LUkiugpGHoL5Si8YFosf3NXFVRs7wdUFh9KKSA1IwdOncnzj1YWOPgqOT22KlswEri0ftVJQVePFs1m+eTiPq0SZIdxCEwMRYe+6GNduji9K31qcGdU0LJwd/TF+9OIukh0C7Sq01r53ZYW2whJMphVffWWas1MLiXXRMz+a3ViCsWeV48ww4+lZiF1rbOeNHKt6/+q98l1P8eCrE3z/ZH5uJHVgN7TDNtduiLK1u/lRB7SJeMxdoTXTl4UgheCePUlu3RoF1IwPhrDQyCAS1H+t4Fv52JEs3zrY5OhDaLTwAA+hNbKJTQSrQLqJVZvCeynZjwi2ascSxbYCsAOXftXY80swY+HVAqHlnM0f0RSUSc7ZdJD9XgWZ9efjxHiW+14cx8lXcO7TgCcY6Axz3ZZOwjUKqNdDW4iHEgItgupWy1W4dpWzuTfGj1/Rx2AiFFjyJYgQWtjMceC2BKfHXb7+yvzFpyqhUShc0AqNh2pi00E4uW70wSEK5Vn9Oq062Dztb6rCpkvaFZeulQOu12BsnJgpDavkrE0ridbB39qqumltg7bxtEU9GRL+5+VpnjzlBUWIyghyee/pD3H5uuYNpQXaQjz8YJ4ocxKZGBbEmy/o4fadgWty0RFsrjgXwsEffH2ax4+lGz+QFoii6M8NCW9kE42efx2Mn0RQQ7PRDQ2ksbwsttbUrtMzF4HFzG1WzflLz/vRRdFuUZ2TYxk+/1yK0XwYLHvuqdSQiGnesivG5u6Fp9hsk0xiEqQNSiEF2KYI86LQHbN5375enjie5bVhD4Rb8frUAJbF4THFv+5PsW9jjJ5Y/fPlHX1h3ranm2nHQ4p6Bt+V+6AUXLMp1lCi3ogluGV7B50Ri5DdRDodDQKFUB4g2dpb/00XC0lu3hKnw7YIW3qW8BVn4nU4r7pK0xWR7Oir/p17WvMvT4/wzIksiFBlb2wB12yO8faLk3V/hlq0iXhof11RSBwlmMq5xGxdNUS62rnQlRo08CCbd7917ruu/VR6g577Uq19CAEhSyJrFPO5fnOCn7yshz96aJR83g0cQa25RxD+aslXDkxxx85O3nFxvYkA4YbNcS4eiqF08ARtEq39GzIZqf/pHw9LPnBtH1lXNefkqku+fAFdkfrtBL0xiw9c20PO0QhRYcJVZ3/8SaUgUeNzP3Miw+efy5JKawgF85PSIyqIRyX3XJRgXdfiJPZuD/HQwf8EPH40zW987RQdhal6BWbEfHYDVfh7zg1e+kL1M1ptv7p0Jj5r3+X78v8uLr/N2NJKjO/lH0pXFA85p59ijnOz62nu3p3khy7qrZqL1LYk77yimyeOpfn6iym0ZSFmHTD4XSuQmrMTeT7z+CjXrY+wsTdacZ/lxMMW8RVKRC+loDfeYMnNRcKSBMdeWqbzin/6XornTyh/hC6CvC26MO0CtObytRHefEHHoh23PcRDqKKAvDrs8urpdPD3fE+gcutWtadeuXjM90goHxLWs1+oz8TUzL6r9NlRnEk5XL0xxsbe6mv62/sivH9fHy+czXHsnIsovd6FKgqmDrzKHj40yd8+EeKjb17XcIlCw2Kj+cYrE3xp/zh55ULIfw1tBz9dwCMUlvzI3mRD0675aA/xAIpJTIS/pBj8Md+b6mhTSiO+JI36nayAn4ot+e7xNN87Nl1TPEDwph2dvPOyLj7x7VFyzlxjvSiE0glB3nH5wv5Jbr2gi1u2N14KwLB4HBnN8dnvjnBiLAvhUqM0/nJvcNtctznOmy9MYi1igGJ7PjaK1nDm2epp02z7pdz34m3nsoL/OJAhPU9GsM6IxU9d0cN1Wzr8Jc1apglL8spIns8+NcqZBTmOGRaCqzSff3aMBw5Ol5W00MFs1wPtMtBh8e7Letg1GFnU47eneBjqQwBI7j+Y5rtHJudtvnswxgev72Vzn412q4uNFKCV5r9fnOTvnhwjvwpTFbYD//PiBH/73QmyeTE7JXvgRu/P7BVvvDDOXbsSizrqgBYTD+PBsQQIwalUjr/73rm68nL8yEVJPnhDL51xC+Xp2UtUBc9HZSGFzfiU4i8fP8fXXp5Y0o9gmMuzJ9P82UPneO1cPphjlg45NYg8qCxb+mzec3kXaxKLb7FuGfHQGOfRJUFolFJ84/U0Dx6amr85gvde1cOPXdqJlB5KKYRWCKWZSZMsEUiwbI6OenzikRGeO7VIYfuGeRmdzvPpR8/x+LFs5YIuQgNZQqE8776sl5u39yxJP1pGPCAYZQcpJqptdQcVFRz3qu2rgX1U3E+pg2Ctz9REIJSo1u8m+lxYij4z6fFP3x+rK7itp8Pmg9f3cNPWMGgHlOefm7K4C4EF0uI7h1P82bdOcXKi9Uo1rDZyjsfffHeELzw/GUTNBqMOXbIpAY7g1m1dvPuqAcL20iwXt4x4SO1heQ5oPwSo0iaYGyhVbSsEPYkq+xHl+yjcccVYhrKAqQrvl/P0gSA2onQ/qBp9VjOfreLnL99HeZ/Lg73QWFojUOBp7n9tii+/MI7rzW+juHR9Bx+6aZDdQzaedvGEnnV9+nFzHlh5lMrzH8+P8+lHhxlLL0LKQkNFXKX5l2dG+d+PjfhTUMv1zwEwa9riwbbeOD9/zRq21umL0wwts1SrtcbzPJAKrxEvxEpTHV3/g764j1K/qOBn3WbAatOtWv2o8J5COdW6j1mhzxWPF6z0jE86fPaJc1y7PsZlG+Yr1iy4Y1cvvziR5f+5/yTDUx6UV3pH+WIvLVJ5+MsnRuiKW/zcvn4S0Za5tFYHWvMf+yf4o2+d49S4Gzz2FXOc3xQkY5Kfubqb2y+s3wu4GVrmDHfHQ1y8NoZnCax5bqFS24gquwkFM1OJeTVI+DdazX1ATT+tgq2mvEnpPsqpZN8ptK95vML7ReVjllZ8L+xHI1DSQgtfnLWb4fvHJrhkfQdyHuu7bQl+8ooBjk44/Nkjkzh5hSiZYwsEqBDa0hDWjGUUH39ohLht87P7eonYLTOwbXu+eiDFH95/jldP5wNHMBsrcCT1rCBcPzj/d14Y551X9xELL613a8uIxw07evmrnhggkTXunmAKP/N7FQo3T63bo1Zyl1nvq7IfPU8/agxIaravJXqFz1+X36kuiGMhGlmjtKK/I4LSel7xAEhEw/zCDes5NWXz998b88PCSzRBag+0RhMCK8TotOZPHx4lHoJ3X9WHZYIYF8x3Dk3yhw+e5ukzeQiC+7TQ2OQQCDxigABXccXmGL/4hn42dC/ddKVAy4jHQFecga6FpUUzLA1rkyF+9cZ+Do3leei1aUpDzLUoKJkELJCao6N5fu+BcyAsfuLyLqJmBNIUGs3DB6f5rW8M850jGZCWn9ogcFb2pEIoWbSv9SdtfvWmHq7bvPBcHfXQMuJhaG0uGorw6zf1MZJ22X8q8F8XOshCVrD4ep/s3wAACm5JREFUB5GcQnJ4RPGRe4eZdhTvubKLjoi51BrBU4qvvDTJ737zLM8cd4rCIYKhp1YCT8TRQQBcd6fFr93Sw1v3JBDLVCNH6AWXAzOcL3hK8y/PjPPR+0Y4Mur4RpY5pRILJQMAV9PXEeKXb+jl/df1MJBYWM7M84W8q/jis6P8wbfOceBMNrAzCaQWzFQY9n/XShGPWfz8db381q19TVd/awbzODDUjSUFb7+4i5yr+YMHz3F4pNS7sYA/EhFao0OSkSmXTzw8wlhO8Qs39LJlEaM6VyOprMM/fn+UTzx8joPnHLBEMDX0QxNFicFJe4pIRPDTVyb4lTf0LKtwgBl5GJrA8RRfeHaM3/z6WY6NKrCsWcvGAn8ZQEvbn8q4LuFQlLsv7OAjt/Vy+UZj26rEibE0f/7tM/zN0xkmpj2EdNGWDRqkVqBnUhoqBQjFuy7v5I/uWtd0seqFYMTD0BR5V/G5p0b5/QdGODbq+ZlvgrAKSRbIo0Ucf3jtgQqB8rhhg82v3jrInbuTRMNm4AugtOaxQyn+34dO8F8vTePoqG97xkGJEJbKE1E58jKGRxjtgSU1P7ynkz++a5AdA8tjIC3HiIehabKO4p+eHuP3vznMkZFAQBAI8gjhoXU4yHrvp5DEU+ApNvRI3ndNN+++eoBNPef3NGY84/Jvz4/zqcdGeOZkxrchyUKeOIUWEqkdLO3h6RhK2dgW/K9L4nzktn52rV25UZwRD8OCyHuKv39yhN97YJRjYzrIK1Gob1LF6u96dEQld+7q5KevSHLbjk6iC6wh0m5opXj6+BR///QkX3w+xekJ1//uCgFehbuy6O0nwQsTDYX4qctifPi2Hrb3L70vRy2MeBgWTM5V/N9nxvnYA+McGs7XV1kyKEKypU/yI3tjvPfqfvasOT9sIWdSDp9/ZpzPPTnC/mEH12NuMp9yN0AXOsIRPnBdHx+6uYs1LbByZcTDsCh4SvOVl1L8zn3DPHsiCwi/jlSN9/ixfR7Scrl6g83P7RvgLXv76Y2vTltIxvF45GCKv3h8jAdfSzOVUb5ozPGhKxEPDShNV8zm56/r50M399Eda43vx4iHYRHRPHY4zZ8/MsL/vJRiOuchpKhZ8qAYV+Tm6E8Kbtue5Id3J7lxW5IN3StjCFxsxtIOjx9N898HxvjaKykOjSgK4lo5sD0QD+XHF1wwGOGD1/bxzit7WkY4wIiHYQk4OpbjM4+d4f98d4xTKRCWLBEQjRYKqSUChRIaJcP+MMTLATCUkFy1oYN7dndx564u1naFg7wV7cV4xuWRQ9N8/rkJHj6c5uhE1hcEK8hsrkBoGdTfLSRgCXA0EUtx27Yov3TLOm7bniTUQLGr5cCIh2FJmMjk+dLTo/zpw+O8Muz6Ga8sgV+MKI+lbCztgcjjyCiaQqmAQq4S6IvBVUM2d1/Uy7VbutjVH6FzmR2hGsX1FK+POjx5dIqvHkjxyJEsxyZc/zMVbUG+WAgt/Hq1QgIuCIdCgFtf1OZdl3bxgTf0ccHQfOkTVgYjHoYlQynF116e5BOPTPLwoQxuPge2gxAaoUJY2kWKHI6IoUSZAVBTFJJQSLKzL8xNW+PcujXKdZs7WZcMY1mtMxo5N5XnmeOTPPR6hgeP5HnuVJZULlg1kZXsGvhFrtEIIdBCgeeBUOzst/mlawf48Sv66O1YecNoNYx4GJacA8N5/uF74/zb8+d4ZTiIypVWkB1NoYSFFjXm8hrwNHiK3iTs2xBh36Y4e4eSbOsLszEpGehc3qlNKp3nVCrP4UmHF047PHV4mu8eH+W1YQUiApb0a2tTOX9LITJWKI3W/hQm2Wlx2/Y4P3tlN2/e1YXV4gW1jHgYloWs4/Hw4Wn+7skR/v3FSbJZD2xrJgdnPWgNngNujkhE0t2ZYCgZYnevzQUDMXYPRtjWF2JLb4SBDntRo0sncy5HxxxeH8nz0tkMr53N8spojsOpLKMpwfSUC9JBhEIIQrM+U0XxCLKwFZasr14f5T3X9HP37m42dLfuaKMUIx6GZeXUZJ5/3T/O3z/5/7d3dr9RVGEcfs6Z2Zn9apd2Wz6aQlUqpoEbPxKiGBLjhd6YeOG98V/zLzDohRd6ZbgiCNGIFVIEqYulQml3aHc+zjlezEw7LfLhhsgW3idp0mZ2dm96npx95z2/9x6XewMMRYjvUy505QyKFGctztbIJ8J7+Fox1bQc7iiOtD1m6o6jbY+ZyTpHJkImGyGNQDM1FuIXkRg1T6EVJMZtl1rWthKigWEzzujdj7m1kXJ9HVY2LatRxp/9lJXIkGQq3w2RgrJ4KKwGh1ekyz9GHsUjajAc7nh8dmqCL96a5M2ZJmrEdxtVRB7C/45xjkt/RHx54Q7nrj3g5gZ5HVVRGV5UBroW0WXbI0bzCfDapTiKrztWF/eb/MdZsFD3PRqBRyPQBL7GU4ow8FBF7Xaq6dEKNMvrGYnJD7vHmSE1eZ7GZmKIUkecka/+atesVkXkm0FhUA6s8ouDgTZPV1MeKL+4p7LT0IqDbc2Zo5rP3+7ywfwE4/sw81XkITw3HgxSvrve5+tfNzh/o8/Vuxk2U9uH7JTNj9VZ5YMqHuc6A6Ro8l4Jq8pREMXiLoeiu53oxV2zM3e1fVMpSvBw/mMpi127op0UtZ3XF5+hNNpZFHmCvCEEXcubWUwG2jA7rnl3rsWnJzt8dKJFd4QLok9C5CE8d6JBwsXliG+XNvn+WsTF3gAbA74u8kKqE9GKxPZCHg6VfyUoQ4n2hs8+MU2ayj2PysvXO6/9V3lU38wUc3dUfmzeAJ5jfjrgw/kxPj7R4sxci+nxZzs39nkg8hBGBmMdiyubfHVlnW9+2+JSb0Cc2J1dQVkPUMX8mmchj108A3mYcuejaNcVC4dCzs6FfLIwxjvHOrTC0e5T+S+IPISRZHE15ofrfS7cWONSL+b3DVgbGGxWRNkrnfdHlMIYWh7uEb/vjVfkYXlUz58Uy6gdesyNweljAe/NT3B6tsnJQ42nrQfvK0QewkjT30q4dT/h8u2E8zcf8HMvYulewl99h7VFPaLs71Bl3WNvpurjqF7fG6dYoVwlRWNXXuPIu0YPNmG2U+PVboP355qcfaXO/FTIeOPFzioReQj7hig2LN/b4peVLX7sJSzeSbi5bljuG6IkITWGxCgwKn86o1Se17dLKK7S7VkcUGPn0vbf5fi+7WKqxqspajp/ijMz5nHqcI2FgwELXZ8TUyGzkw26Lf+p5uG8CIg8hH3JILWsDwz92LERG5ZW+yze3uDK3zE/rcJaEhDFYDJDaixpVvybWwtZudso5VHsWHy1PXXe8xTNQNMKNJ0QXuvAG90ar081OD7d4thknemWR6fukecYvRzCqCLyEF4QHMZYMgdR7Fi6m3L1bspWYlgbGFb6GQ5YH2T5QTWgKg9Pw5G2z4GGh3NwoKE53g2Y7wYc74a0awpfg6/1rpGbLzMiD0EQhmL/9MIKgjBSiDwEQRgKkYcgCEMh8hAEYShEHoIgDIXIQxCEoRB5CIIwFCIPQRCGQuQhCMJQiDwEQRiKfwA8NgzS0UOSbAAAAABJRU5ErkJggg==;textShadow=0;labelBorderColor=none;fontFamily=Verdana;horizontal=1;fillColor=#40189E;shadow=1;align=left;labelPosition=center;whiteSpace=wrap;dashed=1;strokeColor=#B3B3B3;container=0;fontSize=14;" parent="1" vertex="1">
          <mxGeometry x="1234" y="-46" width="50" height="50" as="geometry" />
        </mxCell>
        <mxCell id="r939p5lcw7S0-f_gpcF7-15" value="GPT 4o" style="shape=image;verticalLabelPosition=bottom;labelBackgroundColor=default;verticalAlign=top;aspect=fixed;imageAspect=0;image=data:image/png,iVBORw0KGgoAAAANSUhEUgAAAOEAAADhCAMAAAAJbSJIAAAAaVBMVEX///9UbnpJZnNNaXW8xcmYpq1OaXZTbnpRa3hFY3D5+vpCYW9geINKZ3Py9PVac3/T2dzt8PGhrrRug43b4OLi5uiGl5+0vsN2ipNqgIqLm6Po6+1/kZqbqa/Q1tledoKptbqxvMHGzdEoCc/HAAASA0lEQVR4nO1daXeqSBCNDfYCyCJq3Bf+/48cUBOp6uoNjMmb4/00Z16QvvRSe/XHxxtvvPHGG2+88cYbb7zxxp9HdYznq/WmmBRFVu+nl2aR/PaQnodkcV6JVDEeSSkmQkgpOWMqzabx7rfH9gQkzfbUkpsQaHmqzaH87RGOw2JaKC4peg+W2fzfncmmVpGw0Psima7/zYlsNso2e4CkqpvfHm4wytqb343jPzaP+Z6F8LtyZKv8t4ftj1hFgfw6cBX/9sA9Ue3VAH4d1P6fmMZSDJnAGyLxD+zGS9AJgyHV5bcJuDBVbglog1Db36Zgx5oZx97poirtoBizKDps/dskLEhqmqCIWCpW57hcVnlS7RbN5zZLW3WOnu4/TDHZkBo2Z8WqqbS/Lueb1togH6ivllVyw8tpmJGsKYKc7xvTKJfzjDyXovV0VWeFkExerclzs/wTYmRPLFGuplbLIWk2KcFRRlx2/7tdxq0x2e5gVtQHYh28FlOdoFRb96iazHw69X+Ls6i+/Kah9akrMqxe+D0qyf1LsGTpJv6t9brQJkKys+/D1cpbS5BMTJc/yMOIZILHyAu/CeyQTz0n8fbLs9UvcFzhIc7W3sd8Mg81RSK1f/Wp0+BNyPx1r8924YUR7OaRnV8qKPMCrVE29X20rAeaWiw7/iQlhClaZd4zWIX7Ar4hlfdnHI1Figiu/J5L5ulwU7J7T/aqE6eG88A9Nee4mI3hN+lEx2tcdEc4hbLwOucWDmfcVWGT0rGI1fmHyV2BplD5OCKqlW0DdnGNiE+yut5kk4jbzMlXbMYj1GbY3P1IclZGES8jVawPzeJ7ISS7Mt5uJDNsWeW56UdgDwYrM/cTra5tkoCRyqYlpXnu4hWnpz1A9A7DEk6he40ua+MCjdTW8nge09akv/AdgOUncsxErg+abyl78DZSOXfZDSUpP5XHxhiE5fmUztALud2ASy7cJAEjN78Oi5pY4elPOMvzuGb69+T2KWw2JmNXpltf4zYW+inFni768/mE3EypbZi7tWkDCpYF+LpzPWogs+fq4fnBoG1JizaTT1OThGBF4Cq7aJ/qqQdqcpamtabM6v6nMD0UzQ7BE1AKTFE9T387mh1HojANtaTOhytkuh+yh3bYXhPiSes0mVq0SX6gH6r2pofEYCuvOqE17zjkfFEWNs8fLe0tTopoMjzSVJ2w1e3vFzLj02qvioISaPHJuEDZdIxncIkncT/ix+7Y2l23kniFWUWT6XqkEDtiw3tsdNUUWHq84aw9E5tVtNP4w+8MB2STVT7IM5fHgWmHBv7K3+DiKa6yNRySl2VqROUkOIk0hUZzE98/tkc4wyuqtoRjGrUT6RlERwh+KCaXtVQb16lXzTMhCnvU6gq0TtPhfuKEJMhFn6Ju+66oh2aFawO24qXzWsgodU81FBnRcDNqTYyV83nT/4T6Rq/1Rdo+5Fp+PfHChUteQme7j4OBBhUa7D4wcNFEmsNEYyjTlWvllVC8sI1jxjPwjqECQw8NipszFswh15wJiKFgG9cAqhXW76RaWz8K3OsmvdGBpW6O3R1q4OcjjeGmP9rWtvh0vCiZU8nEXNlUnwRMotwMEkKZttjEXfIFMOTs4FLR2g2o8+tg/TZz8FHYkDD4Ab+XF18/482wXWsuFW1hdsFZ1/cShAbYAI9NiRVn/oh9+jLkThtptzLqd7dPlO5NswP2gtPX5/oBSNCXYeTa/8k8coa5I2bwxYFlKk/BBPE5yje9f/Rk6IoQGTcghMGdU4IRpqFHTYLeDZ1aT2G42KANGGEn7PfL6fQVoN4Ha99zyFAIsBuewFDbgJKtzDlEklLkwD4KPWpy7CmAYx3NMJljH7iqy86dZ3aNR5rdBWLsPFA1Rbo7joGMZdhgtw+L7lNQWcIb2Hb+tOuOVkCFYSIL9O/jGC5wyQnnPc+pWT5KVQPhCrRjWQcxRGkyml47huEOz5JUSC03H7GtCd2THECrDDQv9tD60qTpcIbJXFIbEP3RmS56m0C7qgKHqQwhWMEp1L0UdoaJmWEzwRuQPgO9fMkJYBiFMLwAlU+fo6EM2w0INUGLXWyLB9x13QRMRBBDqLAxXRI5GGYkw90Wzwuz2sWx0c8eza72CtRKQhjm4NtQjqwBDPUNOOEOpS4/GDM3rorc8DkEFjypDvkyfFgWMRVkEy7T2BZbrXdwJjSPnwVTp9IeyrCs6YoadwTqaI6PK6DTBEkLsA1JbSiMoSUPSiqj+feFizEZHKz6ENd+BT63orT6IIZza746d/o6LXkq/VEEmMAgN90QOfNnGOPQ+GyCxABznTi2XKPHr5z9GYLh0yEBX4blAmcCt1OWf2IxoNYud7+7NiMkHxN4B+g15MlQ1qi+6e4Zzg9o3XG2dTjkLIrc/SsFRIK3/R2sR84CGKIQlHxkzyzXUPoLLl1+fN1pDBkGeDGA2s1JZ6AvQ4AZcLdo684tOWx+R7lxPNwH9MmTUSAXQ0L48RlSQTV7XrOiiPca7SpCeTYCzIAhU8bOMNcZkqEZzVXjlhzGHPiQgyY59cZn0BQcDE+IoTS5rkvsbmMT10h3ZB6mIMwDI/Li2QxnlvS1VnKAPxZuyXEklmpQskJe9J+kN3AIw4hZY6P5lOET15Vtk2z1chu/OoEvhs+cQ0vc4QvLNd6OzoypWFupUcAkgpNmJEPjBoRo8LpjheOxZYEPHJ9SgTuSzeiz9IuhOLkMwK93ntF4nZIjx+XjQvlnWq3HysPvdU4rRCRKLVgZ2VMbtALyAIdpv2hSDNFpHgz9oyVL/Xxk9vSUpEYU/SMXwMQfopc+iWG78KwV01g5FBPfjMdL/2W02eVi+PXwOIZXyWGRAhXS7L0Pm2Nf2tCm86sYOiQH3rzKcxKXHAhEar/7MvS32R4MNclhsTku8G/1zB4aSV/k0zUbz2f4cJ3szsixalMa0IEaeU4iEBczapX8JMNKd46bnf8owuLrrJkDPySlDsX9wIbGsBrDUHRHywKX8RlrT+A69S2hQUkOxGkGSpy11T+K4V3FwN4qo+SAMRZLaQsA+IDUzMOtylFx1vg5/Oi8Vcj1JNWUmiAYgvCNdQNPjcAh7g4wVSOSQBI9Yw4/dG9Ve6pSwhEFyvzOGpjZSDkIcO4w0LCq7/87iqGe0BBR2wxOoqfqlsPtS6m0FToL+il632GBIQyhKXuGEQFSa4E7xjOpHXYsIb08CbbNH2mWo+YQGeu7bX8opDEHM2OY3/tQFjXtytBs86900GcyRIZASvxiNST7C6ntzKAbNifY/uFeEjpuleKjAkQJyW0GNZSz3wtxTpRBw0/OET7SW9t83ByGMwSJFb5eN5TXZu7pQXh1z7vv8fg7FsYwBJlD4uQZwEANnEzrtEWpa1gDGJYjGEIvPe2V0JGjwLvN1PvEMc8XM4Q1Or6KG04wlcJibOdTOrg3gKEec/ZgCE4Ny3JDo0blW3a1XZMcL2V4tBpzRuACtHtjShMaonHQqxiCulnun2iKq5e4oxObnvQU4Kc5jmFY9V8aEKRZ4iwfvrEr7ju9eMm3YjT+Og7FaQBDYMyFFAihw6Zd4oVj2ZW4ftvh1b2jl7U/iOEHDLUERPS16kPpNE4+BVZyatdm3O17p9R4ht4iv0PVDyXeoLaO5zXJIa0laF3dWp/CMxiGFPuvdRHAndXmizXawJGlBC3GyvtrGVaUriKZM+bZoFRLYxsaLY4/EdlL92GDj5r7nKTOvkdYcvjlYgxlOPgsxer3A7bcg/voNa8ujgfSdWv6DPjIQ1BaHlJ4gQv0ej/jbhVcZiifANa8GLK4BzEExZZUlw4TEluH0dbWdaU/WCSHtgG/M+GGMISF1yGJpvYeqly5NJZ8OkMc06vk0MtmolqMYAiyKUNKvAwHTe992RDJkc8jrWxm8aWXDmIIPNgh+V9nF8NuO7o0Fl1yTBA/xuOH5j2EYQ7DgUMTTU0c3T0s7LW+/LaqxjCEkSQybdsAqNEYa62ii2M7WnJf5VfZzBiGB1A9EZJoCpym/GAcprOHRXt00oeW+k6ZGsMQ9DkJSTT9AINJc3MBi2T2HhYfnbeK+DLiMd4RDOEiDeowDNZlVw1urrXiqas3RINXOQxdN8MZwk6xaYhlAQ4a1r05n5t63tp7WLQSEFe/o8S14Qwrd6AsgCEyVwFsPSywIi4U/ttvhpre7GIIu6Yzz1xBguF3tv9xY2mFSG7HJsIpMhNtoIMZ7lDbr6COUWCyeutbq3n5RqR0u0proE/mjjwY4n9xMIShzsCuX+AU7qdv5lNT6aPAaSHVFqvYdEOloQxR4ldgr0/gMIXhAC2L4MGA9XuWYRXUuFmHMoTNPkNb0q5sv23rYfFlVzVa3ZrRch7IELXq8o5Z3AFLvLTKmAvRufgGPuvsKq1wtN2ARmE1jCG+QEQE9tQEkQtC37O16M6a7cxrA45huBPI/xzamA6qQ4r4C0sPC6QauLL2hzDUKshmwV14PJIctEICGk7X1RCGOF1/wGWf0Ligl0ByntnMv9ujM6f78RCFMhyTrP8NYAIbDa/KqMjdH3SXzRwzbnyLgaFGUAzpLAiDpDOjw8Lcw8KrbGbXCyD7MtzhltCT2ZDGgjvYlsFyUsWmZAW37ximWXoyPGqdywe2vwQuYWkLW7XjJOwqY6+1B2LYz4VgCMo/bgzn+hEeUBTUB/CAOM6qnabIeTRMKLGhoh8XIHXvasEvCHVq6KXJUK91LQRoV3lswEoPzegMgfHAjq0uT6jEw68rgTLVqbl/Pjxy7nsPkjPX5YzOcA3dvWQPCt+bpgiAtH2P5oSdXSW7+VPOew+0jmZX6Ina4CML7E6+PTTilguYu+lTz7CbnsQkm7tMbdO9VpqrLIH/Tp3YkRZzDAF0ZE0inxPL3ZKb3EsdtM5wHztuFLV3cDLB3Rslavv1jEuJk7PR7kr19u4uvXfcDH5oyQohTVIMMCvrkrj7xxUeYvZkNA/gCjj9K4eBzvG78iMDWXurzvuUe2bQTvTbiiZo1fcP0PodjJzpHyXIPWoAvg5XnobfPhzmh+xQ2uLQIdfW2rBFk8hPA8+uo/FiOWm8IxbfAwoecuVn+SJB3pCJFENm0RoPMG3uxLxIgy7DckC7EleK4B9PDoSKdgO3xHSOpkXKnnMVyBe0e2ZkqGPSFpezJfYRiXW3h5yN3sNAtEVS+4BXlLjpbO9TWWOrO+o2F8kmT+b3QdaSc+FrkWnZMw+44uP4kOsyb1j9+RO3Osf6xxRMbx5LINfTv78QcUeOA77ZqTVZsvlzBISOObHl2yXm4tjyM6torh5teArZ+vKTNx0T15V0IimLzcNMypXxXjKPXCMs7Z9/myMCfXGXZHwVU4dFfpxmRn7CnS/2gR0Mz7h8zIGVQTZFTG62cbn73lPVojmsCxUZdWZ3zl8HdL9GQLObwZgadcTuLmYeiWyz2WQTHtnuYvbK2+yA1ugQn304LmbX9m0Ut/u0rX8kiP7dFCp0leO4m8e80ZhXnie8rx5FYYnXTGGLpbGtrxd46rzX6o4VNrx/+iB9wGzCOuFRx/B4C3z0Ry+oxiiHTqMy2kgaMEEZkjQ6Hs52sBQEk/4OB030PvFKXD9UZl3FgEj5mwP6nZkBRZNPw3JlNGgp8ICrVRcF/mVpvG74R7GcCv8zR3rJ+CvO+q/OfsqccCGP69SXpLsR8g0L4lZX9QyP4VBUlzqyamgP+OjadGhw2MV/z0PVHOqCtZool7fRCSk5pfpItWms+2lJZjyynzcpPJAvm/N0X2dFy04U2Xp1oG737KzJuUk1SZo9KYNGxD5/AMkN1//EjSnvHCO+mesqdNWsCkZG0fiwmxtfgjWt+QjJVZptL025q/K8WpbxeS9SU348+1MziLE3K3edOanSDkoxS83Q39iDZpgNZj8I9Up1exAu1lb/LkgV6Ff/DZTGcjA3oslrjPqRyE3eKyeCoga/iniApdU54wYmcf0GklUwR8lW/8oE3rAw1mbQ/DydcX8KTW28Xkzn5yzX/Jso96mHCSKi1N+X8+ewm2d2O6tV54rpb9m6T0J52CgDS85Utj3+XS3bH7t4mqWqi2u0dpbobMmoJZeK1Xn5f6B3R7JoLq01eSqKyWmzXs3jclRu4RtvvPHGG2+88cYbb7zxxmvwH/4VAR9K5tTEAAAAAElFTkSuQmCC;textShadow=0;labelBorderColor=none;fontFamily=Verdana;horizontal=1;fillColor=#40189E;shadow=1;align=center;labelPosition=center;whiteSpace=wrap;dashed=1;strokeColor=#B3B3B3;container=0;fontSize=14;" parent="1" vertex="1">
          <mxGeometry x="1072" y="327" width="50" height="50" as="geometry" />
        </mxCell>
        <mxCell id="r939p5lcw7S0-f_gpcF7-17" value="GPT 4o mini&#xa;" style="shape=image;verticalLabelPosition=bottom;labelBackgroundColor=default;verticalAlign=top;aspect=fixed;imageAspect=0;image=data:image/png,iVBORw0KGgoAAAANSUhEUgAAAOEAAADhCAMAAAAJbSJIAAAAaVBMVEX///9UbnpJZnNNaXW8xcmYpq1OaXZTbnpRa3hFY3D5+vpCYW9geINKZ3Py9PVac3/T2dzt8PGhrrRug43b4OLi5uiGl5+0vsN2ipNqgIqLm6Po6+1/kZqbqa/Q1tledoKptbqxvMHGzdEoCc/HAAASA0lEQVR4nO1daXeqSBCNDfYCyCJq3Bf+/48cUBOp6uoNjMmb4/00Z16QvvRSe/XHxxtvvPHGG2+88cYbb7zxxp9HdYznq/WmmBRFVu+nl2aR/PaQnodkcV6JVDEeSSkmQkgpOWMqzabx7rfH9gQkzfbUkpsQaHmqzaH87RGOw2JaKC4peg+W2fzfncmmVpGw0Psima7/zYlsNso2e4CkqpvfHm4wytqb343jPzaP+Z6F8LtyZKv8t4ftj1hFgfw6cBX/9sA9Ue3VAH4d1P6fmMZSDJnAGyLxD+zGS9AJgyHV5bcJuDBVbglog1Db36Zgx5oZx97poirtoBizKDps/dskLEhqmqCIWCpW57hcVnlS7RbN5zZLW3WOnu4/TDHZkBo2Z8WqqbS/Lueb1togH6ivllVyw8tpmJGsKYKc7xvTKJfzjDyXovV0VWeFkExerclzs/wTYmRPLFGuplbLIWk2KcFRRlx2/7tdxq0x2e5gVtQHYh28FlOdoFRb96iazHw69X+Ls6i+/Kah9akrMqxe+D0qyf1LsGTpJv6t9brQJkKys+/D1cpbS5BMTJc/yMOIZILHyAu/CeyQTz0n8fbLs9UvcFzhIc7W3sd8Mg81RSK1f/Wp0+BNyPx1r8924YUR7OaRnV8qKPMCrVE29X20rAeaWiw7/iQlhClaZd4zWIX7Ar4hlfdnHI1Figiu/J5L5ulwU7J7T/aqE6eG88A9Nee4mI3hN+lEx2tcdEc4hbLwOucWDmfcVWGT0rGI1fmHyV2BplD5OCKqlW0DdnGNiE+yut5kk4jbzMlXbMYj1GbY3P1IclZGES8jVawPzeJ7ISS7Mt5uJDNsWeW56UdgDwYrM/cTra5tkoCRyqYlpXnu4hWnpz1A9A7DEk6he40ua+MCjdTW8nge09akv/AdgOUncsxErg+abyl78DZSOXfZDSUpP5XHxhiE5fmUztALud2ASy7cJAEjN78Oi5pY4elPOMvzuGb69+T2KWw2JmNXpltf4zYW+inFni768/mE3EypbZi7tWkDCpYF+LpzPWogs+fq4fnBoG1JizaTT1OThGBF4Cq7aJ/qqQdqcpamtabM6v6nMD0UzQ7BE1AKTFE9T387mh1HojANtaTOhytkuh+yh3bYXhPiSes0mVq0SX6gH6r2pofEYCuvOqE17zjkfFEWNs8fLe0tTopoMjzSVJ2w1e3vFzLj02qvioISaPHJuEDZdIxncIkncT/ix+7Y2l23kniFWUWT6XqkEDtiw3tsdNUUWHq84aw9E5tVtNP4w+8MB2STVT7IM5fHgWmHBv7K3+DiKa6yNRySl2VqROUkOIk0hUZzE98/tkc4wyuqtoRjGrUT6RlERwh+KCaXtVQb16lXzTMhCnvU6gq0TtPhfuKEJMhFn6Ju+66oh2aFawO24qXzWsgodU81FBnRcDNqTYyV83nT/4T6Rq/1Rdo+5Fp+PfHChUteQme7j4OBBhUa7D4wcNFEmsNEYyjTlWvllVC8sI1jxjPwjqECQw8NipszFswh15wJiKFgG9cAqhXW76RaWz8K3OsmvdGBpW6O3R1q4OcjjeGmP9rWtvh0vCiZU8nEXNlUnwRMotwMEkKZttjEXfIFMOTs4FLR2g2o8+tg/TZz8FHYkDD4Ab+XF18/482wXWsuFW1hdsFZ1/cShAbYAI9NiRVn/oh9+jLkThtptzLqd7dPlO5NswP2gtPX5/oBSNCXYeTa/8k8coa5I2bwxYFlKk/BBPE5yje9f/Rk6IoQGTcghMGdU4IRpqFHTYLeDZ1aT2G42KANGGEn7PfL6fQVoN4Ha99zyFAIsBuewFDbgJKtzDlEklLkwD4KPWpy7CmAYx3NMJljH7iqy86dZ3aNR5rdBWLsPFA1Rbo7joGMZdhgtw+L7lNQWcIb2Hb+tOuOVkCFYSIL9O/jGC5wyQnnPc+pWT5KVQPhCrRjWQcxRGkyml47huEOz5JUSC03H7GtCd2THECrDDQv9tD60qTpcIbJXFIbEP3RmS56m0C7qgKHqQwhWMEp1L0UdoaJmWEzwRuQPgO9fMkJYBiFMLwAlU+fo6EM2w0INUGLXWyLB9x13QRMRBBDqLAxXRI5GGYkw90Wzwuz2sWx0c8eza72CtRKQhjm4NtQjqwBDPUNOOEOpS4/GDM3rorc8DkEFjypDvkyfFgWMRVkEy7T2BZbrXdwJjSPnwVTp9IeyrCs6YoadwTqaI6PK6DTBEkLsA1JbSiMoSUPSiqj+feFizEZHKz6ENd+BT63orT6IIZza746d/o6LXkq/VEEmMAgN90QOfNnGOPQ+GyCxABznTi2XKPHr5z9GYLh0yEBX4blAmcCt1OWf2IxoNYud7+7NiMkHxN4B+g15MlQ1qi+6e4Zzg9o3XG2dTjkLIrc/SsFRIK3/R2sR84CGKIQlHxkzyzXUPoLLl1+fN1pDBkGeDGA2s1JZ6AvQ4AZcLdo684tOWx+R7lxPNwH9MmTUSAXQ0L48RlSQTV7XrOiiPca7SpCeTYCzIAhU8bOMNcZkqEZzVXjlhzGHPiQgyY59cZn0BQcDE+IoTS5rkvsbmMT10h3ZB6mIMwDI/Li2QxnlvS1VnKAPxZuyXEklmpQskJe9J+kN3AIw4hZY6P5lOET15Vtk2z1chu/OoEvhs+cQ0vc4QvLNd6OzoypWFupUcAkgpNmJEPjBoRo8LpjheOxZYEPHJ9SgTuSzeiz9IuhOLkMwK93ntF4nZIjx+XjQvlnWq3HysPvdU4rRCRKLVgZ2VMbtALyAIdpv2hSDNFpHgz9oyVL/Xxk9vSUpEYU/SMXwMQfopc+iWG78KwV01g5FBPfjMdL/2W02eVi+PXwOIZXyWGRAhXS7L0Pm2Nf2tCm86sYOiQH3rzKcxKXHAhEar/7MvS32R4MNclhsTku8G/1zB4aSV/k0zUbz2f4cJ3szsixalMa0IEaeU4iEBczapX8JMNKd46bnf8owuLrrJkDPySlDsX9wIbGsBrDUHRHywKX8RlrT+A69S2hQUkOxGkGSpy11T+K4V3FwN4qo+SAMRZLaQsA+IDUzMOtylFx1vg5/Oi8Vcj1JNWUmiAYgvCNdQNPjcAh7g4wVSOSQBI9Yw4/dG9Ve6pSwhEFyvzOGpjZSDkIcO4w0LCq7/87iqGe0BBR2wxOoqfqlsPtS6m0FToL+il632GBIQyhKXuGEQFSa4E7xjOpHXYsIb08CbbNH2mWo+YQGeu7bX8opDEHM2OY3/tQFjXtytBs86900GcyRIZASvxiNST7C6ntzKAbNifY/uFeEjpuleKjAkQJyW0GNZSz3wtxTpRBw0/OET7SW9t83ByGMwSJFb5eN5TXZu7pQXh1z7vv8fg7FsYwBJlD4uQZwEANnEzrtEWpa1gDGJYjGEIvPe2V0JGjwLvN1PvEMc8XM4Q1Or6KG04wlcJibOdTOrg3gKEec/ZgCE4Ny3JDo0blW3a1XZMcL2V4tBpzRuACtHtjShMaonHQqxiCulnun2iKq5e4oxObnvQU4Kc5jmFY9V8aEKRZ4iwfvrEr7ju9eMm3YjT+Og7FaQBDYMyFFAihw6Zd4oVj2ZW4ftvh1b2jl7U/iOEHDLUERPS16kPpNE4+BVZyatdm3O17p9R4ht4iv0PVDyXeoLaO5zXJIa0laF3dWp/CMxiGFPuvdRHAndXmizXawJGlBC3GyvtrGVaUriKZM+bZoFRLYxsaLY4/EdlL92GDj5r7nKTOvkdYcvjlYgxlOPgsxer3A7bcg/voNa8ujgfSdWv6DPjIQ1BaHlJ4gQv0ej/jbhVcZiifANa8GLK4BzEExZZUlw4TEluH0dbWdaU/WCSHtgG/M+GGMISF1yGJpvYeqly5NJZ8OkMc06vk0MtmolqMYAiyKUNKvAwHTe992RDJkc8jrWxm8aWXDmIIPNgh+V9nF8NuO7o0Fl1yTBA/xuOH5j2EYQ7DgUMTTU0c3T0s7LW+/LaqxjCEkSQybdsAqNEYa62ii2M7WnJf5VfZzBiGB1A9EZJoCpym/GAcprOHRXt00oeW+k6ZGsMQ9DkJSTT9AINJc3MBi2T2HhYfnbeK+DLiMd4RDOEiDeowDNZlVw1urrXiqas3RINXOQxdN8MZwk6xaYhlAQ4a1r05n5t63tp7WLQSEFe/o8S14Qwrd6AsgCEyVwFsPSywIi4U/ttvhpre7GIIu6Yzz1xBguF3tv9xY2mFSG7HJsIpMhNtoIMZ7lDbr6COUWCyeutbq3n5RqR0u0proE/mjjwY4n9xMIShzsCuX+AU7qdv5lNT6aPAaSHVFqvYdEOloQxR4ldgr0/gMIXhAC2L4MGA9XuWYRXUuFmHMoTNPkNb0q5sv23rYfFlVzVa3ZrRch7IELXq8o5Z3AFLvLTKmAvRufgGPuvsKq1wtN2ARmE1jCG+QEQE9tQEkQtC37O16M6a7cxrA45huBPI/xzamA6qQ4r4C0sPC6QauLL2hzDUKshmwV14PJIctEICGk7X1RCGOF1/wGWf0Ligl0ByntnMv9ujM6f78RCFMhyTrP8NYAIbDa/KqMjdH3SXzRwzbnyLgaFGUAzpLAiDpDOjw8Lcw8KrbGbXCyD7MtzhltCT2ZDGgjvYlsFyUsWmZAW37ximWXoyPGqdywe2vwQuYWkLW7XjJOwqY6+1B2LYz4VgCMo/bgzn+hEeUBTUB/CAOM6qnabIeTRMKLGhoh8XIHXvasEvCHVq6KXJUK91LQRoV3lswEoPzegMgfHAjq0uT6jEw68rgTLVqbl/Pjxy7nsPkjPX5YzOcA3dvWQPCt+bpgiAtH2P5oSdXSW7+VPOew+0jmZX6Ina4CML7E6+PTTilguYu+lTz7CbnsQkm7tMbdO9VpqrLIH/Tp3YkRZzDAF0ZE0inxPL3ZKb3EsdtM5wHztuFLV3cDLB3Rslavv1jEuJk7PR7kr19u4uvXfcDH5oyQohTVIMMCvrkrj7xxUeYvZkNA/gCjj9K4eBzvG78iMDWXurzvuUe2bQTvTbiiZo1fcP0PodjJzpHyXIPWoAvg5XnobfPhzmh+xQ2uLQIdfW2rBFk8hPA8+uo/FiOWm8IxbfAwoecuVn+SJB3pCJFENm0RoPMG3uxLxIgy7DckC7EleK4B9PDoSKdgO3xHSOpkXKnnMVyBe0e2ZkqGPSFpezJfYRiXW3h5yN3sNAtEVS+4BXlLjpbO9TWWOrO+o2F8kmT+b3QdaSc+FrkWnZMw+44uP4kOsyb1j9+RO3Osf6xxRMbx5LINfTv78QcUeOA77ZqTVZsvlzBISOObHl2yXm4tjyM6torh5teArZ+vKTNx0T15V0IimLzcNMypXxXjKPXCMs7Z9/myMCfXGXZHwVU4dFfpxmRn7CnS/2gR0Mz7h8zIGVQTZFTG62cbn73lPVojmsCxUZdWZ3zl8HdL9GQLObwZgadcTuLmYeiWyz2WQTHtnuYvbK2+yA1ugQn304LmbX9m0Ut/u0rX8kiP7dFCp0leO4m8e80ZhXnie8rx5FYYnXTGGLpbGtrxd46rzX6o4VNrx/+iB9wGzCOuFRx/B4C3z0Ry+oxiiHTqMy2kgaMEEZkjQ6Hs52sBQEk/4OB030PvFKXD9UZl3FgEj5mwP6nZkBRZNPw3JlNGgp8ICrVRcF/mVpvG74R7GcCv8zR3rJ+CvO+q/OfsqccCGP69SXpLsR8g0L4lZX9QyP4VBUlzqyamgP+OjadGhw2MV/z0PVHOqCtZool7fRCSk5pfpItWms+2lJZjyynzcpPJAvm/N0X2dFy04U2Xp1oG737KzJuUk1SZo9KYNGxD5/AMkN1//EjSnvHCO+mesqdNWsCkZG0fiwmxtfgjWt+QjJVZptL025q/K8WpbxeS9SU348+1MziLE3K3edOanSDkoxS83Q39iDZpgNZj8I9Up1exAu1lb/LkgV6Ff/DZTGcjA3oslrjPqRyE3eKyeCoga/iniApdU54wYmcf0GklUwR8lW/8oE3rAw1mbQ/DydcX8KTW28Xkzn5yzX/Jso96mHCSKi1N+X8+ewm2d2O6tV54rpb9m6T0J52CgDS85Utj3+XS3bH7t4mqWqi2u0dpbobMmoJZeK1Xn5f6B3R7JoLq01eSqKyWmzXs3jclRu4RtvvPHGG2+88cYbb7zxxmvwH/4VAR9K5tTEAAAAAElFTkSuQmCC;textShadow=0;labelBorderColor=none;fontFamily=Verdana;horizontal=1;fillColor=#40189E;shadow=1;align=center;labelPosition=center;whiteSpace=wrap;dashed=1;strokeColor=#B3B3B3;container=0;fontSize=14;" parent="1" vertex="1">
          <mxGeometry x="1164" y="327" width="50" height="50" as="geometry" />
        </mxCell>
        <mxCell id="r939p5lcw7S0-f_gpcF7-21" value="text embedding ada 002" style="shape=image;verticalLabelPosition=bottom;labelBackgroundColor=default;verticalAlign=top;aspect=fixed;imageAspect=0;image=data:image/png,iVBORw0KGgoAAAANSUhEUgAAAOEAAADhCAMAAAAJbSJIAAAAaVBMVEX///9UbnpJZnNNaXW8xcmYpq1OaXZTbnpRa3hFY3D5+vpCYW9geINKZ3Py9PVac3/T2dzt8PGhrrRug43b4OLi5uiGl5+0vsN2ipNqgIqLm6Po6+1/kZqbqa/Q1tledoKptbqxvMHGzdEoCc/HAAASA0lEQVR4nO1daXeqSBCNDfYCyCJq3Bf+/48cUBOp6uoNjMmb4/00Z16QvvRSe/XHxxtvvPHGG2+88cYbb7zxxp9HdYznq/WmmBRFVu+nl2aR/PaQnodkcV6JVDEeSSkmQkgpOWMqzabx7rfH9gQkzfbUkpsQaHmqzaH87RGOw2JaKC4peg+W2fzfncmmVpGw0Psima7/zYlsNso2e4CkqpvfHm4wytqb343jPzaP+Z6F8LtyZKv8t4ftj1hFgfw6cBX/9sA9Ue3VAH4d1P6fmMZSDJnAGyLxD+zGS9AJgyHV5bcJuDBVbglog1Db36Zgx5oZx97poirtoBizKDps/dskLEhqmqCIWCpW57hcVnlS7RbN5zZLW3WOnu4/TDHZkBo2Z8WqqbS/Lueb1togH6ivllVyw8tpmJGsKYKc7xvTKJfzjDyXovV0VWeFkExerclzs/wTYmRPLFGuplbLIWk2KcFRRlx2/7tdxq0x2e5gVtQHYh28FlOdoFRb96iazHw69X+Ls6i+/Kah9akrMqxe+D0qyf1LsGTpJv6t9brQJkKys+/D1cpbS5BMTJc/yMOIZILHyAu/CeyQTz0n8fbLs9UvcFzhIc7W3sd8Mg81RSK1f/Wp0+BNyPx1r8924YUR7OaRnV8qKPMCrVE29X20rAeaWiw7/iQlhClaZd4zWIX7Ar4hlfdnHI1Figiu/J5L5ulwU7J7T/aqE6eG88A9Nee4mI3hN+lEx2tcdEc4hbLwOucWDmfcVWGT0rGI1fmHyV2BplD5OCKqlW0DdnGNiE+yut5kk4jbzMlXbMYj1GbY3P1IclZGES8jVawPzeJ7ISS7Mt5uJDNsWeW56UdgDwYrM/cTra5tkoCRyqYlpXnu4hWnpz1A9A7DEk6he40ua+MCjdTW8nge09akv/AdgOUncsxErg+abyl78DZSOXfZDSUpP5XHxhiE5fmUztALud2ASy7cJAEjN78Oi5pY4elPOMvzuGb69+T2KWw2JmNXpltf4zYW+inFni768/mE3EypbZi7tWkDCpYF+LpzPWogs+fq4fnBoG1JizaTT1OThGBF4Cq7aJ/qqQdqcpamtabM6v6nMD0UzQ7BE1AKTFE9T387mh1HojANtaTOhytkuh+yh3bYXhPiSes0mVq0SX6gH6r2pofEYCuvOqE17zjkfFEWNs8fLe0tTopoMjzSVJ2w1e3vFzLj02qvioISaPHJuEDZdIxncIkncT/ix+7Y2l23kniFWUWT6XqkEDtiw3tsdNUUWHq84aw9E5tVtNP4w+8MB2STVT7IM5fHgWmHBv7K3+DiKa6yNRySl2VqROUkOIk0hUZzE98/tkc4wyuqtoRjGrUT6RlERwh+KCaXtVQb16lXzTMhCnvU6gq0TtPhfuKEJMhFn6Ju+66oh2aFawO24qXzWsgodU81FBnRcDNqTYyV83nT/4T6Rq/1Rdo+5Fp+PfHChUteQme7j4OBBhUa7D4wcNFEmsNEYyjTlWvllVC8sI1jxjPwjqECQw8NipszFswh15wJiKFgG9cAqhXW76RaWz8K3OsmvdGBpW6O3R1q4OcjjeGmP9rWtvh0vCiZU8nEXNlUnwRMotwMEkKZttjEXfIFMOTs4FLR2g2o8+tg/TZz8FHYkDD4Ab+XF18/482wXWsuFW1hdsFZ1/cShAbYAI9NiRVn/oh9+jLkThtptzLqd7dPlO5NswP2gtPX5/oBSNCXYeTa/8k8coa5I2bwxYFlKk/BBPE5yje9f/Rk6IoQGTcghMGdU4IRpqFHTYLeDZ1aT2G42KANGGEn7PfL6fQVoN4Ha99zyFAIsBuewFDbgJKtzDlEklLkwD4KPWpy7CmAYx3NMJljH7iqy86dZ3aNR5rdBWLsPFA1Rbo7joGMZdhgtw+L7lNQWcIb2Hb+tOuOVkCFYSIL9O/jGC5wyQnnPc+pWT5KVQPhCrRjWQcxRGkyml47huEOz5JUSC03H7GtCd2THECrDDQv9tD60qTpcIbJXFIbEP3RmS56m0C7qgKHqQwhWMEp1L0UdoaJmWEzwRuQPgO9fMkJYBiFMLwAlU+fo6EM2w0INUGLXWyLB9x13QRMRBBDqLAxXRI5GGYkw90Wzwuz2sWx0c8eza72CtRKQhjm4NtQjqwBDPUNOOEOpS4/GDM3rorc8DkEFjypDvkyfFgWMRVkEy7T2BZbrXdwJjSPnwVTp9IeyrCs6YoadwTqaI6PK6DTBEkLsA1JbSiMoSUPSiqj+feFizEZHKz6ENd+BT63orT6IIZza746d/o6LXkq/VEEmMAgN90QOfNnGOPQ+GyCxABznTi2XKPHr5z9GYLh0yEBX4blAmcCt1OWf2IxoNYud7+7NiMkHxN4B+g15MlQ1qi+6e4Zzg9o3XG2dTjkLIrc/SsFRIK3/R2sR84CGKIQlHxkzyzXUPoLLl1+fN1pDBkGeDGA2s1JZ6AvQ4AZcLdo684tOWx+R7lxPNwH9MmTUSAXQ0L48RlSQTV7XrOiiPca7SpCeTYCzIAhU8bOMNcZkqEZzVXjlhzGHPiQgyY59cZn0BQcDE+IoTS5rkvsbmMT10h3ZB6mIMwDI/Li2QxnlvS1VnKAPxZuyXEklmpQskJe9J+kN3AIw4hZY6P5lOET15Vtk2z1chu/OoEvhs+cQ0vc4QvLNd6OzoypWFupUcAkgpNmJEPjBoRo8LpjheOxZYEPHJ9SgTuSzeiz9IuhOLkMwK93ntF4nZIjx+XjQvlnWq3HysPvdU4rRCRKLVgZ2VMbtALyAIdpv2hSDNFpHgz9oyVL/Xxk9vSUpEYU/SMXwMQfopc+iWG78KwV01g5FBPfjMdL/2W02eVi+PXwOIZXyWGRAhXS7L0Pm2Nf2tCm86sYOiQH3rzKcxKXHAhEar/7MvS32R4MNclhsTku8G/1zB4aSV/k0zUbz2f4cJ3szsixalMa0IEaeU4iEBczapX8JMNKd46bnf8owuLrrJkDPySlDsX9wIbGsBrDUHRHywKX8RlrT+A69S2hQUkOxGkGSpy11T+K4V3FwN4qo+SAMRZLaQsA+IDUzMOtylFx1vg5/Oi8Vcj1JNWUmiAYgvCNdQNPjcAh7g4wVSOSQBI9Yw4/dG9Ve6pSwhEFyvzOGpjZSDkIcO4w0LCq7/87iqGe0BBR2wxOoqfqlsPtS6m0FToL+il632GBIQyhKXuGEQFSa4E7xjOpHXYsIb08CbbNH2mWo+YQGeu7bX8opDEHM2OY3/tQFjXtytBs86900GcyRIZASvxiNST7C6ntzKAbNifY/uFeEjpuleKjAkQJyW0GNZSz3wtxTpRBw0/OET7SW9t83ByGMwSJFb5eN5TXZu7pQXh1z7vv8fg7FsYwBJlD4uQZwEANnEzrtEWpa1gDGJYjGEIvPe2V0JGjwLvN1PvEMc8XM4Q1Or6KG04wlcJibOdTOrg3gKEec/ZgCE4Ny3JDo0blW3a1XZMcL2V4tBpzRuACtHtjShMaonHQqxiCulnun2iKq5e4oxObnvQU4Kc5jmFY9V8aEKRZ4iwfvrEr7ju9eMm3YjT+Og7FaQBDYMyFFAihw6Zd4oVj2ZW4ftvh1b2jl7U/iOEHDLUERPS16kPpNE4+BVZyatdm3O17p9R4ht4iv0PVDyXeoLaO5zXJIa0laF3dWp/CMxiGFPuvdRHAndXmizXawJGlBC3GyvtrGVaUriKZM+bZoFRLYxsaLY4/EdlL92GDj5r7nKTOvkdYcvjlYgxlOPgsxer3A7bcg/voNa8ujgfSdWv6DPjIQ1BaHlJ4gQv0ej/jbhVcZiifANa8GLK4BzEExZZUlw4TEluH0dbWdaU/WCSHtgG/M+GGMISF1yGJpvYeqly5NJZ8OkMc06vk0MtmolqMYAiyKUNKvAwHTe992RDJkc8jrWxm8aWXDmIIPNgh+V9nF8NuO7o0Fl1yTBA/xuOH5j2EYQ7DgUMTTU0c3T0s7LW+/LaqxjCEkSQybdsAqNEYa62ii2M7WnJf5VfZzBiGB1A9EZJoCpym/GAcprOHRXt00oeW+k6ZGsMQ9DkJSTT9AINJc3MBi2T2HhYfnbeK+DLiMd4RDOEiDeowDNZlVw1urrXiqas3RINXOQxdN8MZwk6xaYhlAQ4a1r05n5t63tp7WLQSEFe/o8S14Qwrd6AsgCEyVwFsPSywIi4U/ttvhpre7GIIu6Yzz1xBguF3tv9xY2mFSG7HJsIpMhNtoIMZ7lDbr6COUWCyeutbq3n5RqR0u0proE/mjjwY4n9xMIShzsCuX+AU7qdv5lNT6aPAaSHVFqvYdEOloQxR4ldgr0/gMIXhAC2L4MGA9XuWYRXUuFmHMoTNPkNb0q5sv23rYfFlVzVa3ZrRch7IELXq8o5Z3AFLvLTKmAvRufgGPuvsKq1wtN2ARmE1jCG+QEQE9tQEkQtC37O16M6a7cxrA45huBPI/xzamA6qQ4r4C0sPC6QauLL2hzDUKshmwV14PJIctEICGk7X1RCGOF1/wGWf0Ligl0ByntnMv9ujM6f78RCFMhyTrP8NYAIbDa/KqMjdH3SXzRwzbnyLgaFGUAzpLAiDpDOjw8Lcw8KrbGbXCyD7MtzhltCT2ZDGgjvYlsFyUsWmZAW37ximWXoyPGqdywe2vwQuYWkLW7XjJOwqY6+1B2LYz4VgCMo/bgzn+hEeUBTUB/CAOM6qnabIeTRMKLGhoh8XIHXvasEvCHVq6KXJUK91LQRoV3lswEoPzegMgfHAjq0uT6jEw68rgTLVqbl/Pjxy7nsPkjPX5YzOcA3dvWQPCt+bpgiAtH2P5oSdXSW7+VPOew+0jmZX6Ina4CML7E6+PTTilguYu+lTz7CbnsQkm7tMbdO9VpqrLIH/Tp3YkRZzDAF0ZE0inxPL3ZKb3EsdtM5wHztuFLV3cDLB3Rslavv1jEuJk7PR7kr19u4uvXfcDH5oyQohTVIMMCvrkrj7xxUeYvZkNA/gCjj9K4eBzvG78iMDWXurzvuUe2bQTvTbiiZo1fcP0PodjJzpHyXIPWoAvg5XnobfPhzmh+xQ2uLQIdfW2rBFk8hPA8+uo/FiOWm8IxbfAwoecuVn+SJB3pCJFENm0RoPMG3uxLxIgy7DckC7EleK4B9PDoSKdgO3xHSOpkXKnnMVyBe0e2ZkqGPSFpezJfYRiXW3h5yN3sNAtEVS+4BXlLjpbO9TWWOrO+o2F8kmT+b3QdaSc+FrkWnZMw+44uP4kOsyb1j9+RO3Osf6xxRMbx5LINfTv78QcUeOA77ZqTVZsvlzBISOObHl2yXm4tjyM6torh5teArZ+vKTNx0T15V0IimLzcNMypXxXjKPXCMs7Z9/myMCfXGXZHwVU4dFfpxmRn7CnS/2gR0Mz7h8zIGVQTZFTG62cbn73lPVojmsCxUZdWZ3zl8HdL9GQLObwZgadcTuLmYeiWyz2WQTHtnuYvbK2+yA1ugQn304LmbX9m0Ut/u0rX8kiP7dFCp0leO4m8e80ZhXnie8rx5FYYnXTGGLpbGtrxd46rzX6o4VNrx/+iB9wGzCOuFRx/B4C3z0Ry+oxiiHTqMy2kgaMEEZkjQ6Hs52sBQEk/4OB030PvFKXD9UZl3FgEj5mwP6nZkBRZNPw3JlNGgp8ICrVRcF/mVpvG74R7GcCv8zR3rJ+CvO+q/OfsqccCGP69SXpLsR8g0L4lZX9QyP4VBUlzqyamgP+OjadGhw2MV/z0PVHOqCtZool7fRCSk5pfpItWms+2lJZjyynzcpPJAvm/N0X2dFy04U2Xp1oG737KzJuUk1SZo9KYNGxD5/AMkN1//EjSnvHCO+mesqdNWsCkZG0fiwmxtfgjWt+QjJVZptL025q/K8WpbxeS9SU348+1MziLE3K3edOanSDkoxS83Q39iDZpgNZj8I9Up1exAu1lb/LkgV6Ff/DZTGcjA3oslrjPqRyE3eKyeCoga/iniApdU54wYmcf0GklUwR8lW/8oE3rAw1mbQ/DydcX8KTW28Xkzn5yzX/Jso96mHCSKi1N+X8+ewm2d2O6tV54rpb9m6T0J52CgDS85Utj3+XS3bH7t4mqWqi2u0dpbobMmoJZeK1Xn5f6B3R7JoLq01eSqKyWmzXs3jclRu4RtvvPHGG2+88cYbb7zxxmvwH/4VAR9K5tTEAAAAAElFTkSuQmCC;textShadow=0;labelBorderColor=none;fontFamily=Verdana;horizontal=1;fillColor=#40189E;shadow=1;align=center;labelPosition=center;whiteSpace=wrap;dashed=1;strokeColor=#B3B3B3;container=0;fontSize=14;" parent="1" vertex="1">
          <mxGeometry x="1236" y="207" width="50" height="50" as="geometry" />
        </mxCell>
        <mxCell id="r939p5lcw7S0-f_gpcF7-22" value="Dalle 3" style="shape=image;verticalLabelPosition=bottom;labelBackgroundColor=default;verticalAlign=top;aspect=fixed;imageAspect=0;image=data:image/png,iVBORw0KGgoAAAANSUhEUgAAAOEAAADhCAMAAAAJbSJIAAAAaVBMVEX///9UbnpJZnNNaXW8xcmYpq1OaXZTbnpRa3hFY3D5+vpCYW9geINKZ3Py9PVac3/T2dzt8PGhrrRug43b4OLi5uiGl5+0vsN2ipNqgIqLm6Po6+1/kZqbqa/Q1tledoKptbqxvMHGzdEoCc/HAAASA0lEQVR4nO1daXeqSBCNDfYCyCJq3Bf+/48cUBOp6uoNjMmb4/00Z16QvvRSe/XHxxtvvPHGG2+88cYbb7zxxp9HdYznq/WmmBRFVu+nl2aR/PaQnodkcV6JVDEeSSkmQkgpOWMqzabx7rfH9gQkzfbUkpsQaHmqzaH87RGOw2JaKC4peg+W2fzfncmmVpGw0Psima7/zYlsNso2e4CkqpvfHm4wytqb343jPzaP+Z6F8LtyZKv8t4ftj1hFgfw6cBX/9sA9Ue3VAH4d1P6fmMZSDJnAGyLxD+zGS9AJgyHV5bcJuDBVbglog1Db36Zgx5oZx97poirtoBizKDps/dskLEhqmqCIWCpW57hcVnlS7RbN5zZLW3WOnu4/TDHZkBo2Z8WqqbS/Lueb1togH6ivllVyw8tpmJGsKYKc7xvTKJfzjDyXovV0VWeFkExerclzs/wTYmRPLFGuplbLIWk2KcFRRlx2/7tdxq0x2e5gVtQHYh28FlOdoFRb96iazHw69X+Ls6i+/Kah9akrMqxe+D0qyf1LsGTpJv6t9brQJkKys+/D1cpbS5BMTJc/yMOIZILHyAu/CeyQTz0n8fbLs9UvcFzhIc7W3sd8Mg81RSK1f/Wp0+BNyPx1r8924YUR7OaRnV8qKPMCrVE29X20rAeaWiw7/iQlhClaZd4zWIX7Ar4hlfdnHI1Figiu/J5L5ulwU7J7T/aqE6eG88A9Nee4mI3hN+lEx2tcdEc4hbLwOucWDmfcVWGT0rGI1fmHyV2BplD5OCKqlW0DdnGNiE+yut5kk4jbzMlXbMYj1GbY3P1IclZGES8jVawPzeJ7ISS7Mt5uJDNsWeW56UdgDwYrM/cTra5tkoCRyqYlpXnu4hWnpz1A9A7DEk6he40ua+MCjdTW8nge09akv/AdgOUncsxErg+abyl78DZSOXfZDSUpP5XHxhiE5fmUztALud2ASy7cJAEjN78Oi5pY4elPOMvzuGb69+T2KWw2JmNXpltf4zYW+inFni768/mE3EypbZi7tWkDCpYF+LpzPWogs+fq4fnBoG1JizaTT1OThGBF4Cq7aJ/qqQdqcpamtabM6v6nMD0UzQ7BE1AKTFE9T387mh1HojANtaTOhytkuh+yh3bYXhPiSes0mVq0SX6gH6r2pofEYCuvOqE17zjkfFEWNs8fLe0tTopoMjzSVJ2w1e3vFzLj02qvioISaPHJuEDZdIxncIkncT/ix+7Y2l23kniFWUWT6XqkEDtiw3tsdNUUWHq84aw9E5tVtNP4w+8MB2STVT7IM5fHgWmHBv7K3+DiKa6yNRySl2VqROUkOIk0hUZzE98/tkc4wyuqtoRjGrUT6RlERwh+KCaXtVQb16lXzTMhCnvU6gq0TtPhfuKEJMhFn6Ju+66oh2aFawO24qXzWsgodU81FBnRcDNqTYyV83nT/4T6Rq/1Rdo+5Fp+PfHChUteQme7j4OBBhUa7D4wcNFEmsNEYyjTlWvllVC8sI1jxjPwjqECQw8NipszFswh15wJiKFgG9cAqhXW76RaWz8K3OsmvdGBpW6O3R1q4OcjjeGmP9rWtvh0vCiZU8nEXNlUnwRMotwMEkKZttjEXfIFMOTs4FLR2g2o8+tg/TZz8FHYkDD4Ab+XF18/482wXWsuFW1hdsFZ1/cShAbYAI9NiRVn/oh9+jLkThtptzLqd7dPlO5NswP2gtPX5/oBSNCXYeTa/8k8coa5I2bwxYFlKk/BBPE5yje9f/Rk6IoQGTcghMGdU4IRpqFHTYLeDZ1aT2G42KANGGEn7PfL6fQVoN4Ha99zyFAIsBuewFDbgJKtzDlEklLkwD4KPWpy7CmAYx3NMJljH7iqy86dZ3aNR5rdBWLsPFA1Rbo7joGMZdhgtw+L7lNQWcIb2Hb+tOuOVkCFYSIL9O/jGC5wyQnnPc+pWT5KVQPhCrRjWQcxRGkyml47huEOz5JUSC03H7GtCd2THECrDDQv9tD60qTpcIbJXFIbEP3RmS56m0C7qgKHqQwhWMEp1L0UdoaJmWEzwRuQPgO9fMkJYBiFMLwAlU+fo6EM2w0INUGLXWyLB9x13QRMRBBDqLAxXRI5GGYkw90Wzwuz2sWx0c8eza72CtRKQhjm4NtQjqwBDPUNOOEOpS4/GDM3rorc8DkEFjypDvkyfFgWMRVkEy7T2BZbrXdwJjSPnwVTp9IeyrCs6YoadwTqaI6PK6DTBEkLsA1JbSiMoSUPSiqj+feFizEZHKz6ENd+BT63orT6IIZza746d/o6LXkq/VEEmMAgN90QOfNnGOPQ+GyCxABznTi2XKPHr5z9GYLh0yEBX4blAmcCt1OWf2IxoNYud7+7NiMkHxN4B+g15MlQ1qi+6e4Zzg9o3XG2dTjkLIrc/SsFRIK3/R2sR84CGKIQlHxkzyzXUPoLLl1+fN1pDBkGeDGA2s1JZ6AvQ4AZcLdo684tOWx+R7lxPNwH9MmTUSAXQ0L48RlSQTV7XrOiiPca7SpCeTYCzIAhU8bOMNcZkqEZzVXjlhzGHPiQgyY59cZn0BQcDE+IoTS5rkvsbmMT10h3ZB6mIMwDI/Li2QxnlvS1VnKAPxZuyXEklmpQskJe9J+kN3AIw4hZY6P5lOET15Vtk2z1chu/OoEvhs+cQ0vc4QvLNd6OzoypWFupUcAkgpNmJEPjBoRo8LpjheOxZYEPHJ9SgTuSzeiz9IuhOLkMwK93ntF4nZIjx+XjQvlnWq3HysPvdU4rRCRKLVgZ2VMbtALyAIdpv2hSDNFpHgz9oyVL/Xxk9vSUpEYU/SMXwMQfopc+iWG78KwV01g5FBPfjMdL/2W02eVi+PXwOIZXyWGRAhXS7L0Pm2Nf2tCm86sYOiQH3rzKcxKXHAhEar/7MvS32R4MNclhsTku8G/1zB4aSV/k0zUbz2f4cJ3szsixalMa0IEaeU4iEBczapX8JMNKd46bnf8owuLrrJkDPySlDsX9wIbGsBrDUHRHywKX8RlrT+A69S2hQUkOxGkGSpy11T+K4V3FwN4qo+SAMRZLaQsA+IDUzMOtylFx1vg5/Oi8Vcj1JNWUmiAYgvCNdQNPjcAh7g4wVSOSQBI9Yw4/dG9Ve6pSwhEFyvzOGpjZSDkIcO4w0LCq7/87iqGe0BBR2wxOoqfqlsPtS6m0FToL+il632GBIQyhKXuGEQFSa4E7xjOpHXYsIb08CbbNH2mWo+YQGeu7bX8opDEHM2OY3/tQFjXtytBs86900GcyRIZASvxiNST7C6ntzKAbNifY/uFeEjpuleKjAkQJyW0GNZSz3wtxTpRBw0/OET7SW9t83ByGMwSJFb5eN5TXZu7pQXh1z7vv8fg7FsYwBJlD4uQZwEANnEzrtEWpa1gDGJYjGEIvPe2V0JGjwLvN1PvEMc8XM4Q1Or6KG04wlcJibOdTOrg3gKEec/ZgCE4Ny3JDo0blW3a1XZMcL2V4tBpzRuACtHtjShMaonHQqxiCulnun2iKq5e4oxObnvQU4Kc5jmFY9V8aEKRZ4iwfvrEr7ju9eMm3YjT+Og7FaQBDYMyFFAihw6Zd4oVj2ZW4ftvh1b2jl7U/iOEHDLUERPS16kPpNE4+BVZyatdm3O17p9R4ht4iv0PVDyXeoLaO5zXJIa0laF3dWp/CMxiGFPuvdRHAndXmizXawJGlBC3GyvtrGVaUriKZM+bZoFRLYxsaLY4/EdlL92GDj5r7nKTOvkdYcvjlYgxlOPgsxer3A7bcg/voNa8ujgfSdWv6DPjIQ1BaHlJ4gQv0ej/jbhVcZiifANa8GLK4BzEExZZUlw4TEluH0dbWdaU/WCSHtgG/M+GGMISF1yGJpvYeqly5NJZ8OkMc06vk0MtmolqMYAiyKUNKvAwHTe992RDJkc8jrWxm8aWXDmIIPNgh+V9nF8NuO7o0Fl1yTBA/xuOH5j2EYQ7DgUMTTU0c3T0s7LW+/LaqxjCEkSQybdsAqNEYa62ii2M7WnJf5VfZzBiGB1A9EZJoCpym/GAcprOHRXt00oeW+k6ZGsMQ9DkJSTT9AINJc3MBi2T2HhYfnbeK+DLiMd4RDOEiDeowDNZlVw1urrXiqas3RINXOQxdN8MZwk6xaYhlAQ4a1r05n5t63tp7WLQSEFe/o8S14Qwrd6AsgCEyVwFsPSywIi4U/ttvhpre7GIIu6Yzz1xBguF3tv9xY2mFSG7HJsIpMhNtoIMZ7lDbr6COUWCyeutbq3n5RqR0u0proE/mjjwY4n9xMIShzsCuX+AU7qdv5lNT6aPAaSHVFqvYdEOloQxR4ldgr0/gMIXhAC2L4MGA9XuWYRXUuFmHMoTNPkNb0q5sv23rYfFlVzVa3ZrRch7IELXq8o5Z3AFLvLTKmAvRufgGPuvsKq1wtN2ARmE1jCG+QEQE9tQEkQtC37O16M6a7cxrA45huBPI/xzamA6qQ4r4C0sPC6QauLL2hzDUKshmwV14PJIctEICGk7X1RCGOF1/wGWf0Ligl0ByntnMv9ujM6f78RCFMhyTrP8NYAIbDa/KqMjdH3SXzRwzbnyLgaFGUAzpLAiDpDOjw8Lcw8KrbGbXCyD7MtzhltCT2ZDGgjvYlsFyUsWmZAW37ximWXoyPGqdywe2vwQuYWkLW7XjJOwqY6+1B2LYz4VgCMo/bgzn+hEeUBTUB/CAOM6qnabIeTRMKLGhoh8XIHXvasEvCHVq6KXJUK91LQRoV3lswEoPzegMgfHAjq0uT6jEw68rgTLVqbl/Pjxy7nsPkjPX5YzOcA3dvWQPCt+bpgiAtH2P5oSdXSW7+VPOew+0jmZX6Ina4CML7E6+PTTilguYu+lTz7CbnsQkm7tMbdO9VpqrLIH/Tp3YkRZzDAF0ZE0inxPL3ZKb3EsdtM5wHztuFLV3cDLB3Rslavv1jEuJk7PR7kr19u4uvXfcDH5oyQohTVIMMCvrkrj7xxUeYvZkNA/gCjj9K4eBzvG78iMDWXurzvuUe2bQTvTbiiZo1fcP0PodjJzpHyXIPWoAvg5XnobfPhzmh+xQ2uLQIdfW2rBFk8hPA8+uo/FiOWm8IxbfAwoecuVn+SJB3pCJFENm0RoPMG3uxLxIgy7DckC7EleK4B9PDoSKdgO3xHSOpkXKnnMVyBe0e2ZkqGPSFpezJfYRiXW3h5yN3sNAtEVS+4BXlLjpbO9TWWOrO+o2F8kmT+b3QdaSc+FrkWnZMw+44uP4kOsyb1j9+RO3Osf6xxRMbx5LINfTv78QcUeOA77ZqTVZsvlzBISOObHl2yXm4tjyM6torh5teArZ+vKTNx0T15V0IimLzcNMypXxXjKPXCMs7Z9/myMCfXGXZHwVU4dFfpxmRn7CnS/2gR0Mz7h8zIGVQTZFTG62cbn73lPVojmsCxUZdWZ3zl8HdL9GQLObwZgadcTuLmYeiWyz2WQTHtnuYvbK2+yA1ugQn304LmbX9m0Ut/u0rX8kiP7dFCp0leO4m8e80ZhXnie8rx5FYYnXTGGLpbGtrxd46rzX6o4VNrx/+iB9wGzCOuFRx/B4C3z0Ry+oxiiHTqMy2kgaMEEZkjQ6Hs52sBQEk/4OB030PvFKXD9UZl3FgEj5mwP6nZkBRZNPw3JlNGgp8ICrVRcF/mVpvG74R7GcCv8zR3rJ+CvO+q/OfsqccCGP69SXpLsR8g0L4lZX9QyP4VBUlzqyamgP+OjadGhw2MV/z0PVHOqCtZool7fRCSk5pfpItWms+2lJZjyynzcpPJAvm/N0X2dFy04U2Xp1oG737KzJuUk1SZo9KYNGxD5/AMkN1//EjSnvHCO+mesqdNWsCkZG0fiwmxtfgjWt+QjJVZptL025q/K8WpbxeS9SU348+1MziLE3K3edOanSDkoxS83Q39iDZpgNZj8I9Up1exAu1lb/LkgV6Ff/DZTGcjA3oslrjPqRyE3eKyeCoga/iniApdU54wYmcf0GklUwR8lW/8oE3rAw1mbQ/DydcX8KTW28Xkzn5yzX/Jso96mHCSKi1N+X8+ewm2d2O6tV54rpb9m6T0J52CgDS85Utj3+XS3bH7t4mqWqi2u0dpbobMmoJZeK1Xn5f6B3R7JoLq01eSqKyWmzXs3jclRu4RtvvPHGG2+88cYbb7zxxmvwH/4VAR9K5tTEAAAAAElFTkSuQmCC;textShadow=0;labelBorderColor=none;fontFamily=Verdana;horizontal=1;fillColor=#40189E;shadow=1;align=center;labelPosition=center;whiteSpace=wrap;dashed=1;strokeColor=#B3B3B3;container=0;fontSize=14;" parent="1" vertex="1">
          <mxGeometry x="1248" y="327" width="50" height="50" as="geometry" />
        </mxCell>
        <mxCell id="r939p5lcw7S0-f_gpcF7-58" value="LLM Evals App Architecture" style="swimlane;whiteSpace=wrap;html=1;container=0;fontSize=14;" parent="1" vertex="1">
          <mxGeometry x="348" y="-444" width="1200" height="972" as="geometry" />
        </mxCell>
        <mxCell id="r939p5lcw7S0-f_gpcF7-8" value="Azure Key Vault" style="image;aspect=fixed;points=[];align=center;fontSize=14;image=img/lib/azure2/security/Key_Vaults.svg;textShadow=0;labelBorderColor=none;fontFamily=Verdana;horizontal=1;fillColor=#40189E;shadow=1;verticalAlign=top;labelPosition=center;verticalLabelPosition=bottom;whiteSpace=wrap;dashed=1;strokeColor=#B3B3B3;container=0;" parent="r939p5lcw7S0-f_gpcF7-58" vertex="1">
          <mxGeometry x="113.5" y="72" width="50" height="50" as="geometry" />
        </mxCell>
        <mxCell id="1c4CBgfUnh8x3Muybu8b-15" value="" style="edgeStyle=orthogonalEdgeStyle;rounded=0;orthogonalLoop=1;jettySize=auto;html=1;entryX=0;entryY=0.5;entryDx=0;entryDy=0;fontSize=14;" parent="1" source="r939p5lcw7S0-f_gpcF7-40" target="1c4CBgfUnh8x3Muybu8b-14" edge="1">
          <mxGeometry relative="1" as="geometry">
            <mxPoint x="893" y="78" as="targetPoint" />
          </mxGeometry>
        </mxCell>
        <mxCell id="r939p5lcw7S0-f_gpcF7-30" value="" style="swimlane;startSize=0;dashed=1;strokeWidth=2;strokeColor=#B3B3B3;container=0;fontSize=14;" parent="1" vertex="1">
          <mxGeometry x="552" y="-289" width="261" height="200" as="geometry" />
        </mxCell>
        <mxCell id="r939p5lcw7S0-f_gpcF7-31" value="" style="swimlane;startSize=0;dashed=1;strokeWidth=2;strokeColor=#B3B3B3;container=0;fontSize=14;" parent="1" vertex="1">
          <mxGeometry x="1008" y="-72" width="333" height="176" as="geometry" />
        </mxCell>
        <mxCell id="r939p5lcw7S0-f_gpcF7-41" value="" style="edgeStyle=orthogonalEdgeStyle;rounded=0;orthogonalLoop=1;jettySize=auto;html=1;fontSize=14;" parent="1" source="r939p5lcw7S0-f_gpcF7-32" target="r939p5lcw7S0-f_gpcF7-40" edge="1">
          <mxGeometry relative="1" as="geometry" />
        </mxCell>
        <mxCell id="r939p5lcw7S0-f_gpcF7-32" value="" style="swimlane;startSize=0;dashed=1;strokeColor=#B3B3B3;container=0;fontSize=14;" parent="1" vertex="1">
          <mxGeometry x="552" y="240" width="261" height="164" as="geometry" />
        </mxCell>
        <mxCell id="r939p5lcw7S0-f_gpcF7-34" value="" style="swimlane;startSize=0;dashed=1;strokeColor=#B3B3B3;container=0;fontSize=14;" parent="1" vertex="1">
          <mxGeometry x="1008" y="180" width="333" height="264" as="geometry" />
        </mxCell>
        <mxCell id="r939p5lcw7S0-f_gpcF7-54" style="edgeStyle=orthogonalEdgeStyle;rounded=0;orthogonalLoop=1;jettySize=auto;html=1;fontSize=14;" parent="1" source="r939p5lcw7S0-f_gpcF7-40" target="r939p5lcw7S0-f_gpcF7-31" edge="1">
          <mxGeometry relative="1" as="geometry">
            <Array as="points">
              <mxPoint x="912" y="78" />
              <mxPoint x="912" />
            </Array>
          </mxGeometry>
        </mxCell>
        <mxCell id="r939p5lcw7S0-f_gpcF7-57" value="" style="edgeStyle=orthogonalEdgeStyle;rounded=0;orthogonalLoop=1;jettySize=auto;html=1;fontSize=14;" parent="1" source="r939p5lcw7S0-f_gpcF7-40" edge="1">
          <mxGeometry relative="1" as="geometry">
            <mxPoint x="682.5" y="-84" as="targetPoint" />
          </mxGeometry>
        </mxCell>
        <mxCell id="r939p5lcw7S0-f_gpcF7-40" value="" style="swimlane;startSize=0;dashed=1;strokeColor=#B3B3B3;container=0;fontSize=14;" parent="1" vertex="1">
          <mxGeometry x="552" y="-4" width="261" height="164" as="geometry" />
        </mxCell>
        <mxCell id="r939p5lcw7S0-f_gpcF7-51" value="" style="edgeStyle=orthogonalEdgeStyle;rounded=0;orthogonalLoop=1;jettySize=auto;html=1;entryX=-0.003;entryY=0.206;entryDx=0;entryDy=0;entryPerimeter=0;fontSize=14;" parent="1" source="r939p5lcw7S0-f_gpcF7-40" target="r939p5lcw7S0-f_gpcF7-34" edge="1">
          <mxGeometry relative="1" as="geometry">
            <mxPoint x="892.9999999999998" y="78.00000000000023" as="targetPoint" />
          </mxGeometry>
        </mxCell>
        <mxCell id="1c4CBgfUnh8x3Muybu8b-11" value="" style="edgeStyle=orthogonalEdgeStyle;rounded=0;orthogonalLoop=1;jettySize=auto;html=1;fontSize=14;" parent="1" source="1c4CBgfUnh8x3Muybu8b-4" target="1c4CBgfUnh8x3Muybu8b-5" edge="1">
          <mxGeometry relative="1" as="geometry" />
        </mxCell>
        <mxCell id="1c4CBgfUnh8x3Muybu8b-4" value="" style="outlineConnect=0;dashed=0;verticalLabelPosition=bottom;verticalAlign=top;align=center;html=1;shape=mxgraph.aws3.api_gateway;fillColor=#D9A741;gradientColor=none;container=0;fontSize=14;" parent="1" vertex="1">
          <mxGeometry x="1032" y="-230.5" width="50" height="65" as="geometry" />
        </mxCell>
        <mxCell id="1c4CBgfUnh8x3Muybu8b-13" value="" style="edgeStyle=orthogonalEdgeStyle;rounded=0;orthogonalLoop=1;jettySize=auto;html=1;fontSize=14;" parent="1" source="1c4CBgfUnh8x3Muybu8b-5" target="1c4CBgfUnh8x3Muybu8b-6" edge="1">
          <mxGeometry relative="1" as="geometry" />
        </mxCell>
        <mxCell id="1c4CBgfUnh8x3Muybu8b-5" value="" style="outlineConnect=0;dashed=0;verticalLabelPosition=bottom;verticalAlign=top;align=center;html=1;shape=mxgraph.aws3.lambda_function;fillColor=#F58534;gradientColor=none;container=0;fontSize=14;" parent="1" vertex="1">
          <mxGeometry x="1128" y="-222.5" width="60" height="50" as="geometry" />
        </mxCell>
        <mxCell id="1c4CBgfUnh8x3Muybu8b-6" value="" style="sketch=0;points=[[0,0,0],[0.25,0,0],[0.5,0,0],[0.75,0,0],[1,0,0],[0,1,0],[0.25,1,0],[0.5,1,0],[0.75,1,0],[1,1,0],[0,0.25,0],[0,0.5,0],[0,0.75,0],[1,0.25,0],[1,0.5,0],[1,0.75,0]];outlineConnect=0;fontColor=#232F3E;fillColor=#01A88D;strokeColor=#ffffff;dashed=0;verticalLabelPosition=bottom;verticalAlign=top;align=center;html=1;fontSize=14;fontStyle=0;aspect=fixed;shape=mxgraph.aws4.resourceIcon;resIcon=mxgraph.aws4.bedrock;container=0;" parent="1" vertex="1">
          <mxGeometry x="1236" y="-223" width="50" height="50" as="geometry" />
        </mxCell>
        <mxCell id="1c4CBgfUnh8x3Muybu8b-14" value="External AWS Service Private Endpoint" style="swimlane;whiteSpace=wrap;html=1;container=0;fontSize=14;" parent="1" vertex="1">
          <mxGeometry x="1008" y="-264" width="336" height="140" as="geometry" />
        </mxCell>
        <mxCell id="1c4CBgfUnh8x3Muybu8b-16" value="" style="image;aspect=fixed;html=1;points=[];align=center;fontSize=14;image=img/lib/azure2/networking/Virtual_Networks_Classic.svg;container=0;" parent="1" vertex="1">
          <mxGeometry x="468" y="456" width="67" height="40" as="geometry" />
        </mxCell>
      </root>
    </mxGraphModel>
  </diagram>
</mxfile>
